G04 #@! TF.GenerationSoftware,KiCad,Pcbnew,(6.0.0-0)*
G04 #@! TF.CreationDate,2022-01-15T15:28:58+00:00*
G04 #@! TF.ProjectId,BabyHuey,42616279-4875-4657-992e-6b696361645f,1*
G04 #@! TF.SameCoordinates,Original*
G04 #@! TF.FileFunction,Copper,L2,Bot*
G04 #@! TF.FilePolarity,Positive*
%FSLAX46Y46*%
G04 Gerber Fmt 4.6, Leading zero omitted, Abs format (unit mm)*
G04 Created by KiCad (PCBNEW (6.0.0-0)) date 2022-01-15 15:28:58*
%MOMM*%
%LPD*%
G01*
G04 APERTURE LIST*
G04 Aperture macros list*
%AMRoundRect*
0 Rectangle with rounded corners*
0 $1 Rounding radius*
0 $2 $3 $4 $5 $6 $7 $8 $9 X,Y pos of 4 corners*
0 Add a 4 corners polygon primitive as box body*
4,1,4,$2,$3,$4,$5,$6,$7,$8,$9,$2,$3,0*
0 Add four circle primitives for the rounded corners*
1,1,$1+$1,$2,$3*
1,1,$1+$1,$4,$5*
1,1,$1+$1,$6,$7*
1,1,$1+$1,$8,$9*
0 Add four rect primitives between the rounded corners*
20,1,$1+$1,$2,$3,$4,$5,0*
20,1,$1+$1,$4,$5,$6,$7,0*
20,1,$1+$1,$6,$7,$8,$9,0*
20,1,$1+$1,$8,$9,$2,$3,0*%
%AMHorizOval*
0 Thick line with rounded ends*
0 $1 width*
0 $2 $3 position (X,Y) of the first rounded end (center of the circle)*
0 $4 $5 position (X,Y) of the second rounded end (center of the circle)*
0 Add line between two ends*
20,1,$1,$2,$3,$4,$5,0*
0 Add two circle primitives to create the rounded ends*
1,1,$1,$2,$3*
1,1,$1,$4,$5*%
G04 Aperture macros list end*
%ADD10C,0.300000*%
G04 #@! TA.AperFunction,NonConductor*
%ADD11C,0.300000*%
G04 #@! TD*
G04 #@! TA.AperFunction,ComponentPad*
%ADD12C,1.600000*%
G04 #@! TD*
G04 #@! TA.AperFunction,ComponentPad*
%ADD13R,1.800000X1.800000*%
G04 #@! TD*
G04 #@! TA.AperFunction,ComponentPad*
%ADD14C,1.800000*%
G04 #@! TD*
G04 #@! TA.AperFunction,ComponentPad*
%ADD15RoundRect,0.249999X-1.300001X-1.300001X1.300001X-1.300001X1.300001X1.300001X-1.300001X1.300001X0*%
G04 #@! TD*
G04 #@! TA.AperFunction,ComponentPad*
%ADD16C,6.400000*%
G04 #@! TD*
G04 #@! TA.AperFunction,ComponentPad*
%ADD17C,0.800000*%
G04 #@! TD*
G04 #@! TA.AperFunction,ComponentPad*
%ADD18R,1.717500X1.800000*%
G04 #@! TD*
G04 #@! TA.AperFunction,ComponentPad*
%ADD19O,1.717500X1.800000*%
G04 #@! TD*
G04 #@! TA.AperFunction,ComponentPad*
%ADD20C,1.260000*%
G04 #@! TD*
G04 #@! TA.AperFunction,ComponentPad*
%ADD21C,2.800000*%
G04 #@! TD*
G04 #@! TA.AperFunction,ComponentPad*
%ADD22R,1.100000X1.800000*%
G04 #@! TD*
G04 #@! TA.AperFunction,ComponentPad*
%ADD23RoundRect,0.275000X0.275000X0.625000X-0.275000X0.625000X-0.275000X-0.625000X0.275000X-0.625000X0*%
G04 #@! TD*
G04 #@! TA.AperFunction,ComponentPad*
%ADD24RoundRect,0.275000X-0.275000X-0.625000X0.275000X-0.625000X0.275000X0.625000X-0.275000X0.625000X0*%
G04 #@! TD*
G04 #@! TA.AperFunction,ComponentPad*
%ADD25R,2.400000X2.400000*%
G04 #@! TD*
G04 #@! TA.AperFunction,ComponentPad*
%ADD26C,2.400000*%
G04 #@! TD*
G04 #@! TA.AperFunction,ComponentPad*
%ADD27R,3.200000X3.200000*%
G04 #@! TD*
G04 #@! TA.AperFunction,ComponentPad*
%ADD28O,3.200000X3.200000*%
G04 #@! TD*
G04 #@! TA.AperFunction,ComponentPad*
%ADD29R,2.600000X2.600000*%
G04 #@! TD*
G04 #@! TA.AperFunction,ComponentPad*
%ADD30C,2.600000*%
G04 #@! TD*
G04 #@! TA.AperFunction,ComponentPad*
%ADD31R,2.500000X2.500000*%
G04 #@! TD*
G04 #@! TA.AperFunction,ComponentPad*
%ADD32C,2.500000*%
G04 #@! TD*
G04 #@! TA.AperFunction,ComponentPad*
%ADD33R,2.200000X2.200000*%
G04 #@! TD*
G04 #@! TA.AperFunction,ComponentPad*
%ADD34O,2.200000X2.200000*%
G04 #@! TD*
G04 #@! TA.AperFunction,ComponentPad*
%ADD35O,1.600000X1.600000*%
G04 #@! TD*
G04 #@! TA.AperFunction,ComponentPad*
%ADD36O,2.400000X2.400000*%
G04 #@! TD*
G04 #@! TA.AperFunction,ComponentPad*
%ADD37HorizOval,1.600000X0.000000X0.000000X0.000000X0.000000X0*%
G04 #@! TD*
G04 #@! TA.AperFunction,ComponentPad*
%ADD38R,1.600000X1.600000*%
G04 #@! TD*
G04 #@! TA.AperFunction,ComponentPad*
%ADD39R,2.000000X2.000000*%
G04 #@! TD*
G04 #@! TA.AperFunction,ComponentPad*
%ADD40C,2.000000*%
G04 #@! TD*
G04 #@! TA.AperFunction,ComponentPad*
%ADD41R,1.905000X2.000000*%
G04 #@! TD*
G04 #@! TA.AperFunction,ComponentPad*
%ADD42O,1.905000X2.000000*%
G04 #@! TD*
G04 #@! TA.AperFunction,ComponentPad*
%ADD43C,4.000000*%
G04 #@! TD*
G04 #@! TA.AperFunction,ComponentPad*
%ADD44O,3.750000X3.750000*%
G04 #@! TD*
G04 #@! TA.AperFunction,ViaPad*
%ADD45C,0.800000*%
G04 #@! TD*
G04 #@! TA.AperFunction,Conductor*
%ADD46C,0.500000*%
G04 #@! TD*
G04 #@! TA.AperFunction,Conductor*
%ADD47C,1.000000*%
G04 #@! TD*
G04 #@! TA.AperFunction,Conductor*
%ADD48C,3.000000*%
G04 #@! TD*
G04 #@! TA.AperFunction,Conductor*
%ADD49C,2.000000*%
G04 #@! TD*
G04 APERTURE END LIST*
D10*
D11*
X351849142Y-190646857D02*
X351634857Y-190718285D01*
X351563428Y-190789714D01*
X351492000Y-190932571D01*
X351492000Y-191146857D01*
X351563428Y-191289714D01*
X351634857Y-191361142D01*
X351777714Y-191432571D01*
X352349142Y-191432571D01*
X352349142Y-189932571D01*
X351849142Y-189932571D01*
X351706285Y-190004000D01*
X351634857Y-190075428D01*
X351563428Y-190218285D01*
X351563428Y-190361142D01*
X351634857Y-190504000D01*
X351706285Y-190575428D01*
X351849142Y-190646857D01*
X352349142Y-190646857D01*
X350634857Y-191432571D02*
X350777714Y-191361142D01*
X350849142Y-191289714D01*
X350920571Y-191146857D01*
X350920571Y-190718285D01*
X350849142Y-190575428D01*
X350777714Y-190504000D01*
X350634857Y-190432571D01*
X350420571Y-190432571D01*
X350277714Y-190504000D01*
X350206285Y-190575428D01*
X350134857Y-190718285D01*
X350134857Y-191146857D01*
X350206285Y-191289714D01*
X350277714Y-191361142D01*
X350420571Y-191432571D01*
X350634857Y-191432571D01*
X349706285Y-190432571D02*
X349134857Y-190432571D01*
X349492000Y-189932571D02*
X349492000Y-191218285D01*
X349420571Y-191361142D01*
X349277714Y-191432571D01*
X349134857Y-191432571D01*
X348849142Y-190432571D02*
X348277714Y-190432571D01*
X348634857Y-189932571D02*
X348634857Y-191218285D01*
X348563428Y-191361142D01*
X348420571Y-191432571D01*
X348277714Y-191432571D01*
X347563428Y-191432571D02*
X347706285Y-191361142D01*
X347777714Y-191289714D01*
X347849142Y-191146857D01*
X347849142Y-190718285D01*
X347777714Y-190575428D01*
X347706285Y-190504000D01*
X347563428Y-190432571D01*
X347349142Y-190432571D01*
X347206285Y-190504000D01*
X347134857Y-190575428D01*
X347063428Y-190718285D01*
X347063428Y-191146857D01*
X347134857Y-191289714D01*
X347206285Y-191361142D01*
X347349142Y-191432571D01*
X347563428Y-191432571D01*
X346420571Y-191432571D02*
X346420571Y-190432571D01*
X346420571Y-190575428D02*
X346349142Y-190504000D01*
X346206285Y-190432571D01*
X345992000Y-190432571D01*
X345849142Y-190504000D01*
X345777714Y-190646857D01*
X345777714Y-191432571D01*
X345777714Y-190646857D02*
X345706285Y-190504000D01*
X345563428Y-190432571D01*
X345349142Y-190432571D01*
X345206285Y-190504000D01*
X345134857Y-190646857D01*
X345134857Y-191432571D01*
D12*
X136652000Y-171450000D03*
X141652000Y-171450000D03*
D13*
X130175000Y-142875000D03*
D14*
X127635000Y-142875000D03*
D15*
X246380000Y-57150000D03*
D16*
X165130000Y-190670000D03*
D17*
X163432944Y-188972944D03*
X165130000Y-193070000D03*
X166827056Y-188972944D03*
X165130000Y-188270000D03*
X163432944Y-192367056D03*
X167530000Y-190670000D03*
X162730000Y-190670000D03*
X166827056Y-192367056D03*
X256570000Y-57110000D03*
X255867056Y-55412944D03*
X252472944Y-55412944D03*
X251770000Y-57110000D03*
X255867056Y-58807056D03*
X254170000Y-59510000D03*
D16*
X254170000Y-57110000D03*
D17*
X254170000Y-54710000D03*
X252472944Y-58807056D03*
D18*
X143946500Y-116395500D03*
D19*
X146236500Y-116395500D03*
X148526500Y-116395500D03*
D20*
X105410000Y-151765000D03*
X107950000Y-149225000D03*
X110490000Y-151765000D03*
D21*
X344490000Y-100965000D03*
X311470000Y-116840000D03*
X263210000Y-104140000D03*
X343916000Y-162306000D03*
X275656000Y-162306000D03*
D20*
X321630000Y-113030000D03*
X324170000Y-115570000D03*
X321630000Y-118110000D03*
X301310000Y-113030000D03*
X303850000Y-115570000D03*
X301310000Y-118110000D03*
X308930000Y-151765000D03*
X311470000Y-149225000D03*
X314010000Y-151765000D03*
D18*
X347466500Y-116395500D03*
D19*
X349756500Y-116395500D03*
X352046500Y-116395500D03*
D22*
X364810000Y-118535500D03*
D23*
X363540000Y-120605500D03*
X362270000Y-118535500D03*
D22*
X267909000Y-121050000D03*
D24*
X269179000Y-118980000D03*
X270449000Y-121050000D03*
D18*
X279593000Y-119126000D03*
D19*
X277303000Y-119126000D03*
X275013000Y-119126000D03*
D22*
X356237500Y-120415000D03*
D24*
X357507500Y-118345000D03*
X358777500Y-120415000D03*
D22*
X264480000Y-119234000D03*
D23*
X263210000Y-121304000D03*
X261940000Y-119234000D03*
D22*
X324170000Y-143910000D03*
D24*
X325440000Y-141840000D03*
X326710000Y-143910000D03*
D22*
X326710000Y-147555000D03*
D23*
X325440000Y-149625000D03*
X324170000Y-147555000D03*
D13*
X333695000Y-142875000D03*
D14*
X331155000Y-142875000D03*
D13*
X333695000Y-148590000D03*
D14*
X331155000Y-148590000D03*
D25*
X307152000Y-76200000D03*
D26*
X314652000Y-76200000D03*
D12*
X340614000Y-171704000D03*
X345614000Y-171704000D03*
D27*
X174244000Y-169418000D03*
D28*
X189484000Y-169418000D03*
D27*
X201422000Y-175260000D03*
D28*
X186182000Y-175260000D03*
D27*
X174244000Y-190500000D03*
D28*
X174244000Y-175260000D03*
D27*
X180848000Y-175260000D03*
D28*
X180848000Y-190500000D03*
D26*
X221742000Y-175260000D03*
X206742000Y-175260000D03*
D21*
X140970000Y-100965000D03*
X107950000Y-116840000D03*
X59690000Y-104394000D03*
D22*
X152717500Y-120415000D03*
D24*
X153987500Y-118345000D03*
X155257500Y-120415000D03*
D29*
X184992000Y-58420000D03*
D30*
X179992000Y-58420000D03*
D29*
X235712000Y-58420000D03*
D30*
X230712000Y-58420000D03*
D29*
X197612000Y-58420000D03*
D30*
X192612000Y-58420000D03*
D29*
X210312000Y-58420000D03*
D30*
X205312000Y-58420000D03*
D29*
X222758000Y-58420000D03*
D30*
X217758000Y-58420000D03*
D29*
X72136000Y-179078000D03*
D30*
X77136000Y-179078000D03*
D29*
X151130000Y-173490000D03*
D30*
X156130000Y-173490000D03*
D29*
X354878000Y-173490000D03*
D30*
X359878000Y-173490000D03*
D31*
X132696000Y-57404000D03*
D32*
X122696000Y-57404000D03*
X112696000Y-57404000D03*
X102696000Y-57404000D03*
X92696000Y-57404000D03*
X82696000Y-57404000D03*
D31*
X336404000Y-57404000D03*
D32*
X326404000Y-57404000D03*
X316404000Y-57404000D03*
X306404000Y-57404000D03*
X296404000Y-57404000D03*
X286404000Y-57404000D03*
D33*
X230632000Y-65786000D03*
D34*
X230632000Y-73406000D03*
D12*
X208280000Y-85598000D03*
D35*
X218440000Y-85598000D03*
D12*
X218440000Y-80264000D03*
D35*
X208280000Y-80264000D03*
D12*
X133858000Y-176530000D03*
D35*
X144018000Y-176530000D03*
D12*
X133858000Y-171450000D03*
D35*
X123698000Y-171450000D03*
D12*
X91186000Y-168910000D03*
D35*
X91186000Y-179070000D03*
D12*
X151765000Y-129540000D03*
D35*
X161925000Y-129540000D03*
D12*
X161798000Y-124587000D03*
D35*
X151638000Y-124587000D03*
D12*
X151892000Y-113284000D03*
D35*
X162052000Y-113284000D03*
D26*
X100330000Y-135890000D03*
D36*
X115570000Y-135890000D03*
D12*
X88174103Y-75220103D03*
D37*
X80989898Y-68035898D03*
D12*
X164374103Y-75220000D03*
D37*
X157189898Y-68035795D03*
D35*
X84836000Y-104394000D03*
D12*
X74676000Y-104394000D03*
X124206000Y-95758000D03*
D35*
X134366000Y-95758000D03*
D26*
X77724000Y-63246000D03*
D36*
X62484000Y-63246000D03*
D26*
X133350000Y-68580000D03*
D36*
X118110000Y-68580000D03*
D12*
X337820000Y-176784000D03*
D35*
X347980000Y-176784000D03*
D12*
X319090000Y-151130000D03*
D35*
X319090000Y-140970000D03*
D12*
X290068000Y-168910000D03*
D35*
X290068000Y-179070000D03*
D12*
X337820000Y-171704000D03*
D35*
X327660000Y-171704000D03*
D12*
X325440000Y-153416000D03*
D35*
X335600000Y-153416000D03*
D12*
X294894000Y-168910000D03*
D35*
X294894000Y-179070000D03*
D12*
X327660000Y-168084500D03*
D35*
X337820000Y-168084500D03*
D26*
X294960000Y-156718000D03*
D36*
X294960000Y-141478000D03*
D26*
X343855000Y-141478000D03*
D36*
X343855000Y-156718000D03*
D12*
X291150000Y-127762000D03*
D35*
X291150000Y-117602000D03*
D12*
X294640000Y-117602000D03*
D35*
X294640000Y-127762000D03*
D12*
X287594000Y-127762000D03*
D35*
X287594000Y-117602000D03*
D12*
X331978000Y-117602000D03*
D35*
X331978000Y-127762000D03*
D12*
X343474000Y-107315000D03*
D35*
X353634000Y-107315000D03*
D12*
X267020000Y-128270000D03*
D35*
X277180000Y-128270000D03*
D12*
X355285000Y-129540000D03*
D35*
X365445000Y-129540000D03*
D12*
X284165000Y-127762000D03*
D35*
X284165000Y-117602000D03*
D12*
X343728000Y-127762000D03*
D35*
X343728000Y-117602000D03*
D12*
X261686000Y-115570000D03*
D35*
X271846000Y-115570000D03*
D12*
X365318000Y-124587000D03*
D35*
X355158000Y-124587000D03*
D12*
X272034000Y-124714000D03*
D35*
X261874000Y-124714000D03*
D12*
X355412000Y-113284000D03*
D35*
X365572000Y-113284000D03*
D26*
X303850000Y-135890000D03*
D36*
X319090000Y-135890000D03*
D26*
X273370000Y-154305000D03*
D36*
X273370000Y-139065000D03*
D26*
X337566000Y-116332000D03*
D36*
X337566000Y-101092000D03*
D12*
X293950205Y-75220000D03*
D37*
X286766000Y-68035795D03*
D12*
X367828103Y-75220000D03*
D37*
X360643898Y-68035795D03*
D12*
X270002000Y-101854000D03*
D35*
X280162000Y-101854000D03*
D12*
X327599000Y-95250000D03*
D35*
X337759000Y-95250000D03*
D26*
X336870000Y-68580000D03*
D36*
X321630000Y-68580000D03*
D12*
X58166000Y-115570000D03*
D35*
X68326000Y-115570000D03*
D12*
X80645000Y-127762000D03*
D35*
X80645000Y-117602000D03*
D12*
X87630000Y-127762000D03*
D35*
X87630000Y-117602000D03*
D22*
X64389000Y-121050000D03*
D24*
X65659000Y-118980000D03*
X66929000Y-121050000D03*
D22*
X60960000Y-119234000D03*
D23*
X59690000Y-121304000D03*
X58420000Y-119234000D03*
D20*
X97790000Y-113030000D03*
X100330000Y-115570000D03*
X97790000Y-118110000D03*
D12*
X68326000Y-112014000D03*
D35*
X58166000Y-112014000D03*
D33*
X191008000Y-66548000D03*
D34*
X191008000Y-74168000D03*
D33*
X183642000Y-66548000D03*
D34*
X183642000Y-74168000D03*
D33*
X176276000Y-74168000D03*
D34*
X176276000Y-66548000D03*
D33*
X198374000Y-74168000D03*
D34*
X198374000Y-66548000D03*
D26*
X153924000Y-63246000D03*
D36*
X138684000Y-63246000D03*
D14*
X177800000Y-89154000D03*
X179850000Y-81654000D03*
D25*
X189992000Y-87630000D03*
D26*
X197492000Y-87630000D03*
D25*
X208400000Y-119380000D03*
D26*
X215900000Y-119380000D03*
D25*
X244310041Y-159004000D03*
D26*
X249310041Y-159004000D03*
X353380000Y-139700000D03*
X353380000Y-162200000D03*
X284292000Y-139700000D03*
X284292000Y-162200000D03*
X304612000Y-98806000D03*
D25*
X299612000Y-98806000D03*
X317820000Y-98806000D03*
D26*
X322820000Y-98806000D03*
D38*
X140906500Y-112077500D03*
D35*
X148526500Y-112077500D03*
D38*
X282514000Y-113792000D03*
D35*
X274894000Y-113792000D03*
D38*
X344426500Y-112077500D03*
D35*
X352046500Y-112077500D03*
D26*
X217932000Y-185166000D03*
D36*
X187452000Y-185166000D03*
D25*
X238252000Y-110744000D03*
D26*
X230752000Y-110744000D03*
D25*
X242824000Y-125984000D03*
D26*
X250324000Y-125984000D03*
D25*
X243840000Y-92456000D03*
D26*
X248840000Y-92456000D03*
D25*
X243840000Y-77470000D03*
D26*
X248840000Y-77470000D03*
D39*
X225806000Y-91694000D03*
D40*
X225806000Y-86694000D03*
D12*
X193548000Y-111760000D03*
D35*
X193548000Y-101600000D03*
D12*
X198882000Y-111760000D03*
D35*
X198882000Y-101600000D03*
D12*
X181356000Y-111760000D03*
D35*
X181356000Y-101600000D03*
D41*
X188214000Y-116459000D03*
D42*
X185674000Y-116459000D03*
X183134000Y-116459000D03*
D12*
X139954000Y-107315000D03*
D35*
X150114000Y-107315000D03*
D26*
X80772000Y-139700000D03*
X80772000Y-162200000D03*
X149860000Y-139700000D03*
X149860000Y-162200000D03*
D38*
X187452000Y-111760000D03*
D35*
X187452000Y-104140000D03*
D26*
X69850000Y-154305000D03*
D36*
X69850000Y-139065000D03*
D13*
X130175000Y-148590000D03*
D14*
X127635000Y-148590000D03*
D12*
X123698000Y-168148000D03*
D35*
X133858000Y-168148000D03*
D22*
X120650000Y-143910000D03*
D24*
X121920000Y-141840000D03*
X123190000Y-143910000D03*
D12*
X121920000Y-153416000D03*
D35*
X132080000Y-153416000D03*
D22*
X123190000Y-147555000D03*
D23*
X121920000Y-149625000D03*
X120650000Y-147555000D03*
D26*
X91440000Y-156718000D03*
D36*
X91440000Y-141478000D03*
D21*
X72136000Y-162306000D03*
D12*
X112395000Y-107950000D03*
D35*
X102235000Y-107950000D03*
D12*
X161925000Y-134874000D03*
D35*
X151765000Y-134874000D03*
D12*
X279146000Y-134620000D03*
D35*
X289306000Y-134620000D03*
D12*
X257556000Y-133604000D03*
D35*
X267716000Y-133604000D03*
D33*
X235712000Y-73406000D03*
D34*
X235712000Y-65786000D03*
D12*
X84074000Y-127762000D03*
D35*
X84074000Y-117602000D03*
D25*
X96092000Y-98806000D03*
D26*
X101092000Y-98806000D03*
D12*
X63500000Y-128270000D03*
D35*
X73660000Y-128270000D03*
D18*
X76073000Y-119126000D03*
D19*
X73783000Y-119126000D03*
X71493000Y-119126000D03*
D33*
X217678000Y-65532000D03*
D34*
X217678000Y-73152000D03*
D22*
X161290000Y-118535500D03*
D23*
X160020000Y-120605500D03*
X158750000Y-118535500D03*
D38*
X97536000Y-129475112D03*
D12*
X97536000Y-126975112D03*
D25*
X114300000Y-98806000D03*
D26*
X119300000Y-98806000D03*
D25*
X103632000Y-76200000D03*
D26*
X111132000Y-76200000D03*
D25*
X223990041Y-126492000D03*
D26*
X228990041Y-126492000D03*
D12*
X174244000Y-101600000D03*
D35*
X174244000Y-111760000D03*
D33*
X222758000Y-73152000D03*
D34*
X222758000Y-65532000D03*
D38*
X219964000Y-109982000D03*
D12*
X222464000Y-109982000D03*
X226314000Y-80264000D03*
D35*
X236474000Y-80264000D03*
D25*
X209804000Y-95836220D03*
D26*
X209804000Y-103336220D03*
D38*
X225044000Y-140716000D03*
D35*
X225044000Y-148336000D03*
D12*
X236728000Y-148336000D03*
D35*
X236728000Y-138176000D03*
D12*
X216408000Y-138176000D03*
D35*
X216408000Y-148336000D03*
D12*
X228854000Y-148336000D03*
D35*
X228854000Y-138176000D03*
D12*
X232918000Y-138176000D03*
D35*
X232918000Y-148336000D03*
D12*
X220726000Y-148336000D03*
D35*
X220726000Y-138176000D03*
D41*
X224790000Y-153035000D03*
D42*
X222250000Y-153035000D03*
X219710000Y-153035000D03*
D39*
X244266323Y-144272000D03*
D40*
X249266323Y-144272000D03*
D12*
X140208000Y-127762000D03*
D35*
X140208000Y-117602000D03*
D12*
X91186000Y-117602000D03*
D35*
X91186000Y-127762000D03*
D26*
X134112000Y-116332000D03*
D36*
X134112000Y-101092000D03*
D12*
X128524000Y-117602000D03*
D35*
X128524000Y-127762000D03*
D26*
X140335000Y-141478000D03*
D36*
X140335000Y-156718000D03*
D21*
X140208000Y-162560000D03*
D20*
X118110000Y-113030000D03*
X120650000Y-115570000D03*
X118110000Y-118110000D03*
D38*
X78994000Y-113792000D03*
D35*
X71374000Y-113792000D03*
D12*
X115570000Y-150876000D03*
D35*
X115570000Y-140716000D03*
D20*
X235458000Y-178308000D03*
X232918000Y-175768000D03*
X235458000Y-173228000D03*
D29*
X251540000Y-175268000D03*
D30*
X256540000Y-175268000D03*
D12*
X243332000Y-183388000D03*
D35*
X243332000Y-173228000D03*
D12*
X86360000Y-168910000D03*
D35*
X86360000Y-179070000D03*
D29*
X275670000Y-179078000D03*
D30*
X280670000Y-179078000D03*
D26*
X280670000Y-63246000D03*
D36*
X265430000Y-63246000D03*
D26*
X223774000Y-98552000D03*
D36*
X239014000Y-98552000D03*
D38*
X301244000Y-129540000D03*
D12*
X301244000Y-127040000D03*
D20*
X107950000Y-145781000D03*
X105410000Y-143241000D03*
X107950000Y-140701000D03*
X210312000Y-70358000D03*
X207772000Y-72898000D03*
X205232000Y-70358000D03*
X311404000Y-146035000D03*
X308864000Y-143495000D03*
X311404000Y-140955000D03*
D43*
X101401000Y-180521800D03*
X97390000Y-175001700D03*
X97390000Y-168178300D03*
X101400600Y-162658200D03*
X107890000Y-160549600D03*
X114379400Y-162658200D03*
X118390000Y-168178300D03*
X118390000Y-175001700D03*
X114379400Y-180521800D03*
D44*
X64755116Y-94560433D03*
X57719567Y-87524884D03*
X57719567Y-77575116D03*
X64755116Y-70539567D03*
X74704884Y-70539567D03*
X81740433Y-77575116D03*
X81740433Y-87524884D03*
X74704884Y-94560433D03*
X141075116Y-94560433D03*
X134039567Y-87524884D03*
X134039567Y-77575116D03*
X141075116Y-70539567D03*
X151024884Y-70539567D03*
X158060433Y-77575116D03*
X158060433Y-87524884D03*
X151024884Y-94560433D03*
D43*
X304921000Y-180521800D03*
X300910000Y-175001700D03*
X300910000Y-168178300D03*
X304920600Y-162658200D03*
X311410000Y-160549600D03*
X317899400Y-162658200D03*
X321910000Y-168178300D03*
X321910000Y-175001700D03*
X317899400Y-180521800D03*
D44*
X344595116Y-94560433D03*
X337559567Y-87524884D03*
X337559567Y-77575116D03*
X344595116Y-70539567D03*
X354544884Y-70539567D03*
X361580433Y-77575116D03*
X361580433Y-87524884D03*
X354544884Y-94560433D03*
X268275116Y-94560433D03*
X261239567Y-87524884D03*
X261239567Y-77575116D03*
X268275116Y-70539567D03*
X278224884Y-70539567D03*
X285260433Y-77575116D03*
X285260433Y-87524884D03*
X278224884Y-94560433D03*
D45*
X167640000Y-134874000D03*
X168656000Y-134874000D03*
X169672000Y-134874000D03*
D46*
X198374000Y-74168000D02*
X190888000Y-81654000D01*
X190888000Y-81654000D02*
X179850000Y-81654000D01*
X176276000Y-74168000D02*
X176276000Y-78080000D01*
X176276000Y-78080000D02*
X179850000Y-81654000D01*
X176276000Y-66548000D02*
X183642000Y-66548000D01*
X191008000Y-66548000D02*
X198374000Y-66548000D01*
X184992000Y-58420000D02*
X184992000Y-60532000D01*
X184992000Y-60532000D02*
X191008000Y-66548000D01*
X179992000Y-58420000D02*
X176276000Y-62136000D01*
X176276000Y-62136000D02*
X176276000Y-66548000D01*
X174244000Y-101600000D02*
X178054000Y-105410000D01*
X178054000Y-105410000D02*
X186182000Y-105410000D01*
X186182000Y-105410000D02*
X187452000Y-104140000D01*
X187452000Y-111760000D02*
X188722000Y-111760000D01*
X97790000Y-102108000D02*
X101092000Y-98806000D01*
X97790000Y-113030000D02*
X97790000Y-102108000D01*
X74704884Y-104365116D02*
X74676000Y-104394000D01*
X74704884Y-94560433D02*
X74704884Y-104365116D01*
X59690000Y-104394000D02*
X74676000Y-104394000D01*
X365445000Y-129540000D02*
X365445000Y-129413000D01*
X355285000Y-129540000D02*
X355285000Y-128397000D01*
X355285000Y-128397000D02*
X349756500Y-122868500D01*
X349756500Y-122868500D02*
X349756500Y-116395500D01*
X365445000Y-129413000D02*
X358777500Y-122745500D01*
D47*
X311410000Y-160549600D02*
X311410000Y-168650000D01*
X311410000Y-168650000D02*
X311404000Y-168656000D01*
X361580433Y-87524884D02*
X363222029Y-89166480D01*
X311410000Y-168662000D02*
X311410000Y-160549600D01*
X363222029Y-89166480D02*
X368809568Y-89166480D01*
X313436000Y-170688000D02*
X311410000Y-168662000D01*
X372597520Y-177058480D02*
X353568000Y-196088000D01*
X368809568Y-89166480D02*
X372597520Y-92954432D01*
X353568000Y-196088000D02*
X321310000Y-196088000D01*
X372597520Y-92954432D02*
X372597520Y-177058480D01*
X321310000Y-196088000D02*
X313436000Y-188214000D01*
X313436000Y-188214000D02*
X313436000Y-170688000D01*
D46*
X228990041Y-126492000D02*
X228990041Y-113013959D01*
X228990041Y-113013959D02*
X230752000Y-111252000D01*
X230752000Y-111252000D02*
X230752000Y-110744000D01*
X225044000Y-140716000D02*
X229108000Y-140716000D01*
X229108000Y-140716000D02*
X236728000Y-148336000D01*
X232918000Y-138176000D02*
X235712000Y-140970000D01*
X235712000Y-140970000D02*
X245964323Y-140970000D01*
X245964323Y-140970000D02*
X249266323Y-144272000D01*
X225044000Y-148336000D02*
X228854000Y-148336000D01*
X220726000Y-138176000D02*
X228854000Y-138176000D01*
X228854000Y-138176000D02*
X232918000Y-138176000D01*
X271780000Y-148336000D02*
X236728000Y-148336000D01*
X279146000Y-134620000D02*
X279146000Y-140970000D01*
X279146000Y-140970000D02*
X271780000Y-148336000D01*
X224790000Y-148590000D02*
X225044000Y-148336000D01*
X218948000Y-140716000D02*
X225044000Y-140716000D01*
X216408000Y-138176000D02*
X218948000Y-140716000D01*
X224790000Y-153035000D02*
X224790000Y-148590000D01*
X220726000Y-148336000D02*
X222250000Y-149860000D01*
X222250000Y-149860000D02*
X222250000Y-153035000D01*
X131572000Y-107950000D02*
X138176000Y-114554000D01*
X168656000Y-138176000D02*
X216408000Y-138176000D01*
X138176000Y-118872000D02*
X146812000Y-127508000D01*
X146812000Y-127508000D02*
X154686000Y-127508000D01*
X138176000Y-114554000D02*
X138176000Y-118872000D01*
X162560000Y-132080000D02*
X168656000Y-138176000D01*
X154686000Y-127508000D02*
X159258000Y-132080000D01*
X159258000Y-132080000D02*
X162560000Y-132080000D01*
X112395000Y-107950000D02*
X131572000Y-107950000D01*
X216408000Y-149733000D02*
X216408000Y-148336000D01*
X219710000Y-153035000D02*
X216408000Y-149733000D01*
X264922000Y-120076000D02*
X264480000Y-119634000D01*
X264922000Y-123952000D02*
X264922000Y-120076000D01*
X264160000Y-124714000D02*
X264922000Y-123952000D01*
X261874000Y-124714000D02*
X264160000Y-124714000D01*
X225806000Y-91694000D02*
X219710000Y-85598000D01*
X219710000Y-85598000D02*
X218440000Y-85598000D01*
X218440000Y-80264000D02*
X218313000Y-80137000D01*
X218440000Y-85598000D02*
X218440000Y-80264000D01*
X218313000Y-80137000D02*
X215011000Y-80137000D01*
X215011000Y-80137000D02*
X207772000Y-72898000D01*
X208280000Y-85598000D02*
X209804000Y-87122000D01*
X209804000Y-87122000D02*
X209804000Y-95836220D01*
X331978000Y-117602000D02*
X329946000Y-115570000D01*
X329946000Y-115570000D02*
X324170000Y-115570000D01*
X331978000Y-127762000D02*
X343728000Y-127762000D01*
X128524000Y-117602000D02*
X126492000Y-115570000D01*
X126492000Y-115570000D02*
X120650000Y-115570000D01*
X128524000Y-127762000D02*
X140208000Y-127762000D01*
X177800000Y-89154000D02*
X179324000Y-87630000D01*
X179324000Y-87630000D02*
X189992000Y-87630000D01*
X193548000Y-101600000D02*
X193548000Y-102870000D01*
X193548000Y-102870000D02*
X198882000Y-108204000D01*
X198882000Y-108204000D02*
X198882000Y-111760000D01*
X198882000Y-111760000D02*
X200780000Y-111760000D01*
X200780000Y-111760000D02*
X208400000Y-119380000D01*
X188214000Y-116459000D02*
X188722000Y-115951000D01*
X188722000Y-115951000D02*
X188722000Y-111760000D01*
X193548000Y-101600000D02*
X191262000Y-99314000D01*
X191262000Y-99314000D02*
X183642000Y-99314000D01*
X183642000Y-99314000D02*
X181356000Y-101600000D01*
X188722000Y-111760000D02*
X193548000Y-111760000D01*
X181356000Y-111760000D02*
X185674000Y-116078000D01*
X185674000Y-116078000D02*
X185674000Y-116459000D01*
X153924000Y-63246000D02*
X160020000Y-63246000D01*
X160020000Y-63246000D02*
X168148000Y-71374000D01*
X168148000Y-71374000D02*
X168148000Y-84836000D01*
X168148000Y-84836000D02*
X179070000Y-95758000D01*
X174244000Y-111760000D02*
X178943000Y-116459000D01*
X178943000Y-116459000D02*
X183134000Y-116459000D01*
X179070000Y-95758000D02*
X174244000Y-100584000D01*
X174244000Y-100584000D02*
X174244000Y-101600000D01*
X182118000Y-95758000D02*
X179070000Y-95758000D01*
X256540000Y-108536944D02*
X278559056Y-108536944D01*
X278559056Y-108536944D02*
X290322000Y-96774000D01*
X290322000Y-96774000D02*
X290322000Y-61322000D01*
X290322000Y-61322000D02*
X286404000Y-57404000D01*
X256540000Y-108536944D02*
X256540000Y-82274683D01*
X256540000Y-82274683D02*
X261239567Y-77575116D01*
X273370000Y-139065000D02*
X268097000Y-139065000D01*
X268097000Y-139065000D02*
X256540000Y-127508000D01*
X256540000Y-127508000D02*
X256540000Y-108536944D01*
X322820000Y-98806000D02*
X329170000Y-105156000D01*
X329170000Y-105156000D02*
X351475000Y-105156000D01*
X351475000Y-105156000D02*
X353634000Y-107315000D01*
X274894000Y-113792000D02*
X277149536Y-111536464D01*
X277149536Y-111536464D02*
X284195536Y-111536464D01*
X284195536Y-111536464D02*
X293950205Y-101781795D01*
X293950205Y-101781795D02*
X293950205Y-75510205D01*
X351282000Y-124460000D02*
X326136000Y-124460000D01*
X326136000Y-124460000D02*
X318770000Y-131826000D01*
X318770000Y-131826000D02*
X303530000Y-131826000D01*
X296672000Y-124968000D02*
X280482000Y-124968000D01*
X303530000Y-131826000D02*
X296672000Y-124968000D01*
X280482000Y-124968000D02*
X277180000Y-128270000D01*
X151765000Y-129540000D02*
X146558000Y-129540000D01*
X146558000Y-129540000D02*
X141478000Y-124460000D01*
X141478000Y-124460000D02*
X122174000Y-124460000D01*
X122174000Y-124460000D02*
X114693511Y-131940489D01*
X114693511Y-131940489D02*
X97650489Y-131940489D01*
X97650489Y-131940489D02*
X89154000Y-123444000D01*
X89154000Y-123444000D02*
X78486000Y-123444000D01*
X78486000Y-123444000D02*
X73660000Y-128270000D01*
X119300000Y-98806000D02*
X125650000Y-105156000D01*
X125650000Y-105156000D02*
X147955000Y-105156000D01*
X147955000Y-105156000D02*
X150114000Y-107315000D01*
X130175000Y-142875000D02*
X130175000Y-142367000D01*
X130175000Y-142367000D02*
X127508000Y-139700000D01*
X127508000Y-139700000D02*
X117348000Y-139700000D01*
X117348000Y-139700000D02*
X116332000Y-140716000D01*
X116332000Y-140716000D02*
X115570000Y-140716000D01*
X321630000Y-113030000D02*
X335026000Y-113030000D01*
X335026000Y-113030000D02*
X340741000Y-107315000D01*
X340741000Y-107315000D02*
X343474000Y-107315000D01*
D48*
X221742000Y-181356000D02*
X217932000Y-185166000D01*
X221742000Y-175260000D02*
X221742000Y-181356000D01*
D49*
X316404000Y-57404000D02*
X316484000Y-57484000D01*
X112776000Y-57484000D02*
X112776000Y-74556000D01*
X316484000Y-74368000D02*
X314652000Y-76200000D01*
X112776000Y-74556000D02*
X111132000Y-76200000D01*
X112696000Y-57404000D02*
X112776000Y-57484000D01*
X316484000Y-57484000D02*
X316484000Y-74368000D01*
D46*
X251714000Y-100838000D02*
X241808000Y-110744000D01*
X251714000Y-69342000D02*
X251714000Y-100838000D01*
X233506000Y-55626000D02*
X237998000Y-55626000D01*
X241808000Y-110744000D02*
X250324000Y-119260000D01*
X241808000Y-110744000D02*
X238252000Y-110744000D01*
X250324000Y-119260000D02*
X250324000Y-125984000D01*
X230712000Y-58420000D02*
X233506000Y-55626000D01*
X237998000Y-55626000D02*
X251714000Y-69342000D01*
X222758000Y-58420000D02*
X222758000Y-62611022D01*
X248840000Y-87456000D02*
X243840000Y-92456000D01*
X222758000Y-62611022D02*
X228726978Y-68580000D01*
X248840000Y-77470000D02*
X248840000Y-87456000D01*
X239950000Y-68580000D02*
X248840000Y-77470000D01*
X228726978Y-68580000D02*
X239950000Y-68580000D01*
X201405520Y-139175520D02*
X235458000Y-173228000D01*
X226314000Y-76708000D02*
X222758000Y-73152000D01*
X219964000Y-126492000D02*
X219964000Y-109982000D01*
X167623520Y-139175520D02*
X201405520Y-139175520D01*
X237490000Y-70104000D02*
X225806000Y-70104000D01*
X256286000Y-134874000D02*
X257556000Y-133604000D01*
X161925000Y-134874000D02*
X163322000Y-134874000D01*
X211582000Y-134874000D02*
X256286000Y-134874000D01*
X235458000Y-173228000D02*
X243332000Y-173228000D01*
X167640000Y-134874000D02*
X211582000Y-134874000D01*
X229108000Y-100838000D02*
X229108000Y-83058000D01*
X243840000Y-77470000D02*
X243840000Y-76454000D01*
X219964000Y-109982000D02*
X229108000Y-100838000D01*
X225806000Y-70104000D02*
X222758000Y-73152000D01*
X211582000Y-134874000D02*
X219964000Y-126492000D01*
X229108000Y-83058000D02*
X226314000Y-80264000D01*
X163322000Y-134874000D02*
X167623520Y-139175520D01*
X226314000Y-80264000D02*
X226314000Y-76708000D01*
X243840000Y-76454000D02*
X237490000Y-70104000D01*
X249310041Y-148336000D02*
X249310041Y-159004000D01*
X136652000Y-171450000D02*
X133858000Y-171450000D01*
X133858000Y-176530000D02*
X133858000Y-171450000D01*
X133858000Y-171450000D02*
X133858000Y-168148000D01*
X140208000Y-130048000D02*
X149860000Y-139700000D01*
X140208000Y-127762000D02*
X140208000Y-130048000D01*
X80645000Y-139573000D02*
X80645000Y-127762000D01*
X80645000Y-127762000D02*
X84074000Y-127762000D01*
X80772000Y-139700000D02*
X80645000Y-139573000D01*
X97790000Y-113030000D02*
X118110000Y-113030000D01*
X153090000Y-176530000D02*
X144018000Y-176530000D01*
X156130000Y-173490000D02*
X153090000Y-176530000D01*
X141652000Y-174164000D02*
X144018000Y-176530000D01*
X141652000Y-171450000D02*
X141652000Y-174164000D01*
X343728000Y-130048000D02*
X353380000Y-139700000D01*
X343728000Y-127762000D02*
X343728000Y-130048000D01*
X284165000Y-127762000D02*
X287594000Y-127762000D01*
X284165000Y-139573000D02*
X284165000Y-127762000D01*
X284292000Y-139700000D02*
X284165000Y-139573000D01*
X301310000Y-113030000D02*
X321630000Y-113030000D01*
X301310000Y-102108000D02*
X304612000Y-98806000D01*
X301310000Y-113030000D02*
X301310000Y-102108000D01*
D48*
X180848000Y-175260000D02*
X186182000Y-175260000D01*
X182118000Y-190500000D02*
X165100000Y-190500000D01*
X187452000Y-185166000D02*
X182118000Y-190500000D01*
X174244000Y-175260000D02*
X174244000Y-169418000D01*
D46*
X230632000Y-65786000D02*
X235712000Y-65786000D01*
X235712000Y-58420000D02*
X235712000Y-65786000D01*
X217678000Y-58420000D02*
X217678000Y-65532000D01*
X222758000Y-65532000D02*
X217678000Y-65532000D01*
X121920000Y-149225000D02*
X122491500Y-149796500D01*
X122491500Y-149796500D02*
X126428500Y-149796500D01*
X121920000Y-149225000D02*
X121920000Y-153416000D01*
X126428500Y-149796500D02*
X127635000Y-148590000D01*
X121920000Y-142240000D02*
X122618500Y-141541500D01*
X127635000Y-142875000D02*
X127635000Y-146050000D01*
X126301500Y-141541500D02*
X127635000Y-142875000D01*
X122618500Y-141541500D02*
X126301500Y-141541500D01*
X127635000Y-146050000D02*
X130175000Y-148590000D01*
X76073000Y-119126000D02*
X76073000Y-116205000D01*
X76073000Y-116205000D02*
X78486000Y-113792000D01*
X78994000Y-113792000D02*
X80645000Y-115443000D01*
X78486000Y-113792000D02*
X78994000Y-113792000D01*
X80645000Y-115443000D02*
X80645000Y-117602000D01*
X140906500Y-113355500D02*
X143946500Y-116395500D01*
X140906500Y-112077500D02*
X140906500Y-113355500D01*
X140208000Y-117602000D02*
X141414500Y-116395500D01*
X141414500Y-116395500D02*
X143946500Y-116395500D01*
X331282000Y-146177000D02*
X333695000Y-148590000D01*
X331282000Y-143002000D02*
X331282000Y-146177000D01*
X331155000Y-142875000D02*
X331282000Y-143002000D01*
X329821500Y-141541500D02*
X331155000Y-142875000D01*
X326138500Y-141541500D02*
X329821500Y-141541500D01*
X325440000Y-142240000D02*
X326138500Y-141541500D01*
X325440000Y-149225000D02*
X325440000Y-153416000D01*
X329948500Y-149796500D02*
X331155000Y-148590000D01*
X326011500Y-149796500D02*
X329948500Y-149796500D01*
X325440000Y-149225000D02*
X326011500Y-149796500D01*
X284165000Y-115443000D02*
X284165000Y-117602000D01*
X282514000Y-113792000D02*
X284165000Y-115443000D01*
X279593000Y-119126000D02*
X279593000Y-116647000D01*
X279593000Y-116647000D02*
X282448000Y-113792000D01*
X282448000Y-113792000D02*
X282514000Y-113792000D01*
X344426500Y-113355500D02*
X347466500Y-116395500D01*
X344426500Y-112077500D02*
X344426500Y-113355500D01*
X344934500Y-116395500D02*
X347466500Y-116395500D01*
X343728000Y-117602000D02*
X344934500Y-116395500D01*
D47*
X57719567Y-87524884D02*
X55709557Y-89534894D01*
X321827568Y-194838480D02*
X353050432Y-194838480D01*
X317899400Y-190910312D02*
X321827568Y-194838480D01*
X46756480Y-177058480D02*
X65786000Y-196088000D01*
X65786000Y-196088000D02*
X105410000Y-196088000D01*
X55709557Y-89534894D02*
X51764450Y-89534894D01*
D46*
X205312000Y-58420000D02*
X205312000Y-70278000D01*
D47*
X317899400Y-180521800D02*
X317899400Y-190910312D01*
X46756480Y-94542864D02*
X46756480Y-177058480D01*
X114379400Y-187118600D02*
X114379400Y-180521800D01*
X371348000Y-176540912D02*
X371348000Y-93472000D01*
X353050432Y-194838480D02*
X371348000Y-176540912D01*
X337664683Y-87630000D02*
X337559567Y-87524884D01*
X360759929Y-90416000D02*
X357973929Y-87630000D01*
X368292000Y-90416000D02*
X360759929Y-90416000D01*
X371348000Y-93472000D02*
X368292000Y-90416000D01*
X51764450Y-89534894D02*
X46756480Y-94542864D01*
D46*
X205312000Y-70278000D02*
X205232000Y-70358000D01*
D47*
X357973929Y-87630000D02*
X337664683Y-87630000D01*
X105410000Y-196088000D02*
X114379400Y-187118600D01*
D49*
X361580433Y-87524884D02*
X361580433Y-87514433D01*
X146050000Y-75692000D02*
X157882884Y-87524884D01*
X69596000Y-75438000D02*
X69596000Y-62484000D01*
X349504000Y-61976000D02*
X339852000Y-52324000D01*
D47*
X309301400Y-162658200D02*
X304920600Y-162658200D01*
D49*
X210312000Y-52324000D02*
X210312000Y-58420000D01*
D47*
X52154912Y-90911520D02*
X48006000Y-95060432D01*
D49*
X273304000Y-75568451D02*
X285260433Y-87524884D01*
D47*
X109982000Y-189748912D02*
X109982000Y-170688000D01*
D49*
X349504000Y-75438000D02*
X349504000Y-61976000D01*
X146050000Y-52832000D02*
X146050000Y-75692000D01*
X81534000Y-87376000D02*
X69596000Y-75438000D01*
X361580433Y-87514433D02*
X349504000Y-75438000D01*
D47*
X61431187Y-87524884D02*
X58044551Y-90911520D01*
D49*
X79756000Y-52324000D02*
X210312000Y-52324000D01*
D47*
X104912912Y-194818000D02*
X109982000Y-189748912D01*
X311410000Y-160549600D02*
X309301400Y-162658200D01*
X48006000Y-95060432D02*
X48006000Y-176540912D01*
X48006000Y-176540912D02*
X66283088Y-194818000D01*
X107890000Y-168596000D02*
X107890000Y-160549600D01*
X81740433Y-87524884D02*
X61431187Y-87524884D01*
D46*
X210312000Y-58420000D02*
X210312000Y-70358000D01*
D49*
X69596000Y-62484000D02*
X79756000Y-52324000D01*
D47*
X66283088Y-194818000D02*
X104912912Y-194818000D01*
X107890000Y-160549600D02*
X105781400Y-162658200D01*
X105781400Y-162658200D02*
X101400600Y-162658200D01*
D49*
X157882884Y-87524884D02*
X158060433Y-87524884D01*
X339852000Y-52324000D02*
X210312000Y-52324000D01*
D47*
X58044551Y-90911520D02*
X52154912Y-90911520D01*
D49*
X273304000Y-52324000D02*
X273304000Y-75568451D01*
D47*
X109982000Y-170688000D02*
X107890000Y-168596000D01*
D49*
X197612000Y-58420000D02*
X197612000Y-52324000D01*
D46*
X243332000Y-178308000D02*
X248500000Y-178308000D01*
X235458000Y-178308000D02*
X243332000Y-178308000D01*
X248500000Y-178308000D02*
X251540000Y-175268000D01*
X243332000Y-183388000D02*
X243332000Y-178308000D01*
X232918000Y-175768000D02*
X235458000Y-178308000D01*
D48*
X246380000Y-57150000D02*
X254000000Y-57150000D01*
D46*
X149500000Y-162560000D02*
X149860000Y-162200000D01*
X140335000Y-162433000D02*
X140208000Y-162560000D01*
X140335000Y-156718000D02*
X140335000Y-162433000D01*
X140208000Y-162560000D02*
X149500000Y-162560000D01*
X114379400Y-162658200D02*
X140109800Y-162658200D01*
X140109800Y-162658200D02*
X140208000Y-162560000D01*
X80772000Y-162200000D02*
X85958000Y-162200000D01*
X101401000Y-180521800D02*
X97717800Y-180521800D01*
X80772000Y-170180000D02*
X80772000Y-162200000D01*
X97717800Y-180521800D02*
X91440000Y-174244000D01*
X85958000Y-162200000D02*
X91440000Y-156718000D01*
X80772000Y-162200000D02*
X72242000Y-162200000D01*
X91440000Y-174244000D02*
X84836000Y-174244000D01*
X84836000Y-174244000D02*
X80772000Y-170180000D01*
X72242000Y-162200000D02*
X72136000Y-162306000D01*
X115570000Y-140716000D02*
X107965000Y-140716000D01*
X107950000Y-140701000D02*
X105410000Y-143241000D01*
X107965000Y-140716000D02*
X107950000Y-140701000D01*
X60960000Y-119634000D02*
X60960000Y-114554000D01*
X114220000Y-103886000D02*
X119300000Y-98806000D01*
X102235000Y-107950000D02*
X106299000Y-103886000D01*
X151892000Y-109220000D02*
X151892000Y-113284000D01*
X60960000Y-114554000D02*
X58420000Y-112014000D01*
X150114000Y-107315000D02*
X150114000Y-107442000D01*
X106299000Y-103886000D02*
X114220000Y-103886000D01*
X150114000Y-107442000D02*
X151892000Y-109220000D01*
X97536000Y-129475112D02*
X97536000Y-131826000D01*
X73783000Y-128139000D02*
X73783000Y-119126000D01*
X340614000Y-171704000D02*
X337820000Y-171704000D01*
X337820000Y-176784000D02*
X337820000Y-171704000D01*
X337820000Y-171704000D02*
X337820000Y-168084500D01*
X345614000Y-174418000D02*
X347980000Y-176784000D01*
X345614000Y-171704000D02*
X345614000Y-174418000D01*
X348234000Y-176530000D02*
X347980000Y-176784000D01*
X356838000Y-176530000D02*
X348234000Y-176530000D01*
X359878000Y-173490000D02*
X356838000Y-176530000D01*
X343855000Y-156718000D02*
X343855000Y-162245000D01*
X318251600Y-162306000D02*
X343916000Y-162306000D01*
X317899400Y-162658200D02*
X318251600Y-162306000D01*
X343916000Y-162306000D02*
X353274000Y-162306000D01*
X353274000Y-162306000D02*
X353380000Y-162200000D01*
X343855000Y-162245000D02*
X343916000Y-162306000D01*
X284186000Y-162306000D02*
X289372000Y-162306000D01*
X289372000Y-162306000D02*
X294960000Y-156718000D01*
X295910000Y-175514000D02*
X300917800Y-180521800D01*
X288544000Y-175514000D02*
X295910000Y-175514000D01*
X275762000Y-162200000D02*
X275656000Y-162306000D01*
X284292000Y-162200000D02*
X284292000Y-171262000D01*
X284292000Y-162200000D02*
X275762000Y-162200000D01*
X300917800Y-180521800D02*
X304921000Y-180521800D01*
X284292000Y-171262000D02*
X288544000Y-175514000D01*
X333695000Y-142875000D02*
X333695000Y-142433000D01*
X330962000Y-139700000D02*
X320360000Y-139700000D01*
X355412000Y-109093000D02*
X355412000Y-113284000D01*
X333695000Y-142433000D02*
X330962000Y-139700000D01*
X353634000Y-107315000D02*
X355412000Y-109093000D01*
X356237500Y-120015000D02*
X356235000Y-120015000D01*
X320360000Y-139700000D02*
X319090000Y-140970000D01*
X355412000Y-119192000D02*
X355412000Y-113284000D01*
X356235000Y-120015000D02*
X355412000Y-119192000D01*
X277303000Y-128139000D02*
X277303000Y-119126000D01*
X277180000Y-128270000D02*
X271846000Y-133604000D01*
X271846000Y-133604000D02*
X267716000Y-133604000D01*
X123190000Y-147955000D02*
X123190000Y-143510000D01*
X107950000Y-145781000D02*
X107965000Y-145796000D01*
X112776000Y-145796000D02*
X115570000Y-148590000D01*
X115570000Y-148590000D02*
X120650000Y-143510000D01*
X115570000Y-150876000D02*
X115570000Y-148590000D01*
X107965000Y-145796000D02*
X112776000Y-145796000D01*
X58166000Y-115570000D02*
X58420000Y-115824000D01*
X57658000Y-125476000D02*
X60452000Y-128270000D01*
X58420000Y-119634000D02*
X57658000Y-120396000D01*
X60452000Y-128270000D02*
X63500000Y-128270000D01*
X58420000Y-115824000D02*
X58420000Y-119634000D01*
X57658000Y-120396000D02*
X57658000Y-125476000D01*
X63627000Y-121412000D02*
X64389000Y-120650000D01*
X59690000Y-120904000D02*
X60198000Y-121412000D01*
X60198000Y-121412000D02*
X63627000Y-121412000D01*
X63754000Y-116586000D02*
X63754000Y-120015000D01*
X68326000Y-112014000D02*
X63754000Y-116586000D01*
X63754000Y-120015000D02*
X64389000Y-120650000D01*
X161290000Y-114046000D02*
X162052000Y-113284000D01*
X161290000Y-118935500D02*
X161290000Y-114046000D01*
X153416000Y-124587000D02*
X155257500Y-122745500D01*
X161925000Y-129413000D02*
X155257500Y-122745500D01*
X161925000Y-129540000D02*
X161925000Y-129413000D01*
X155257500Y-122745500D02*
X155257500Y-120015000D01*
X151638000Y-124587000D02*
X153416000Y-124587000D01*
X68326000Y-115570000D02*
X68326000Y-116840000D01*
X68326000Y-116840000D02*
X65786000Y-119380000D01*
X65786000Y-119380000D02*
X65659000Y-119380000D01*
X160020000Y-122809000D02*
X160020000Y-120205500D01*
X161798000Y-124587000D02*
X160020000Y-122809000D01*
X326710000Y-147955000D02*
X326710000Y-143510000D01*
X307152000Y-76200000D02*
X307152000Y-58152000D01*
X307152000Y-58152000D02*
X306404000Y-57404000D01*
X319090000Y-151130000D02*
X319090000Y-148590000D01*
X319184000Y-148496000D02*
X324170000Y-143510000D01*
X316723000Y-146035000D02*
X319184000Y-148496000D01*
X319090000Y-148590000D02*
X319184000Y-148496000D01*
X311404000Y-146035000D02*
X316723000Y-146035000D01*
X267909000Y-121351000D02*
X267909000Y-120650000D01*
X272034000Y-124714000D02*
X271272000Y-124714000D01*
X271272000Y-124714000D02*
X267909000Y-121351000D01*
X261940000Y-115824000D02*
X261940000Y-119634000D01*
X259842000Y-121732000D02*
X259842000Y-125403671D01*
X262708329Y-128270000D02*
X267020000Y-128270000D01*
X259842000Y-125403671D02*
X262708329Y-128270000D01*
X261940000Y-119634000D02*
X259842000Y-121732000D01*
X261686000Y-115570000D02*
X261940000Y-115824000D01*
X358777500Y-122745500D02*
X358777500Y-120015000D01*
X356936000Y-124587000D02*
X358777500Y-122745500D01*
X355158000Y-124587000D02*
X356936000Y-124587000D01*
X364810000Y-118935500D02*
X364810000Y-114046000D01*
X364810000Y-114046000D02*
X365572000Y-113284000D01*
X357507500Y-118745000D02*
X362968500Y-113284000D01*
X362968500Y-113284000D02*
X365572000Y-113284000D01*
X271846000Y-116586000D02*
X269179000Y-119253000D01*
X271846000Y-115570000D02*
X271846000Y-116586000D01*
X365318000Y-124587000D02*
X363540000Y-122809000D01*
X363540000Y-122809000D02*
X363540000Y-120205500D01*
X97277700Y-175001700D02*
X97390000Y-175001700D01*
X91186000Y-168910000D02*
X97277700Y-175001700D01*
X123667700Y-168178300D02*
X123698000Y-168148000D01*
X118390000Y-168178300D02*
X123667700Y-168178300D01*
X88138000Y-97028000D02*
X88138000Y-75256206D01*
X71374000Y-113792000D02*
X88138000Y-97028000D01*
X69969000Y-120650000D02*
X71493000Y-119126000D01*
X88138000Y-75256206D02*
X88174103Y-75220103D01*
X71493000Y-113911000D02*
X71374000Y-113792000D01*
X71493000Y-119126000D02*
X71493000Y-113911000D01*
X66929000Y-120650000D02*
X69969000Y-120650000D01*
X158750000Y-96774000D02*
X164338000Y-91186000D01*
X148590000Y-116332000D02*
X158750000Y-116332000D01*
X158750000Y-118935500D02*
X158750000Y-96774000D01*
X148526500Y-116395500D02*
X148590000Y-116332000D01*
X148526500Y-116395500D02*
X148526500Y-112077500D01*
X164338000Y-75256103D02*
X164374103Y-75220000D01*
X164338000Y-91186000D02*
X164338000Y-75256103D01*
X95250000Y-115570000D02*
X97790000Y-118110000D01*
X87630000Y-117602000D02*
X89662000Y-115570000D01*
X89662000Y-115570000D02*
X95250000Y-115570000D01*
X118110000Y-118110000D02*
X116078000Y-120142000D01*
X116078000Y-120142000D02*
X93726000Y-120142000D01*
X93726000Y-120142000D02*
X91186000Y-117602000D01*
X84074000Y-117602000D02*
X87122000Y-114554000D01*
X87122000Y-114554000D02*
X99314000Y-114554000D01*
X99314000Y-114554000D02*
X100330000Y-115570000D01*
X77208553Y-68035898D02*
X80989898Y-68035898D01*
X74704884Y-70539567D02*
X77208553Y-68035898D01*
X153492451Y-68072000D02*
X151024884Y-70539567D01*
X157189898Y-68035795D02*
X157153693Y-68072000D01*
X157153693Y-68072000D02*
X153492451Y-68072000D01*
X294894000Y-168910000D02*
X300910000Y-174926000D01*
X300910000Y-174926000D02*
X300910000Y-175001700D01*
X327566200Y-168178300D02*
X321910000Y-168178300D01*
X327660000Y-168084500D02*
X327566200Y-168178300D01*
X275013000Y-113911000D02*
X274894000Y-113792000D01*
X275013000Y-119126000D02*
X275013000Y-113911000D01*
X273489000Y-120650000D02*
X275013000Y-119126000D01*
X270449000Y-120650000D02*
X273489000Y-120650000D01*
X352046500Y-116395500D02*
X352046500Y-112077500D01*
X292928000Y-115824000D02*
X299024000Y-115824000D01*
X291150000Y-117602000D02*
X292928000Y-115824000D01*
X299024000Y-115824000D02*
X301310000Y-118110000D01*
X297180000Y-120142000D02*
X294640000Y-117602000D01*
X321630000Y-118110000D02*
X319598000Y-120142000D01*
X319598000Y-120142000D02*
X297180000Y-120142000D01*
X302834000Y-114554000D02*
X303850000Y-115570000D01*
X287594000Y-117602000D02*
X290642000Y-114554000D01*
X290642000Y-114554000D02*
X302834000Y-114554000D01*
X280728656Y-68035795D02*
X286766000Y-68035795D01*
X278224884Y-70539567D02*
X280728656Y-68035795D01*
X360643898Y-68035795D02*
X357048656Y-68035795D01*
X357048656Y-68035795D02*
X354544884Y-70539567D01*
X77144000Y-179070000D02*
X86360000Y-179070000D01*
X86360000Y-179070000D02*
X91186000Y-179070000D01*
X77136000Y-179078000D02*
X77144000Y-179070000D01*
X290068000Y-179070000D02*
X294894000Y-179070000D01*
X280670000Y-179078000D02*
X280678000Y-179070000D01*
X280678000Y-179070000D02*
X290068000Y-179070000D01*
X128270000Y-83344683D02*
X134039567Y-77575116D01*
X132696000Y-61360000D02*
X127508000Y-66548000D01*
X132696000Y-57404000D02*
X132696000Y-61360000D01*
X128270000Y-95250000D02*
X128270000Y-83344683D01*
X127508000Y-66548000D02*
X127508000Y-71043549D01*
X127508000Y-71043549D02*
X134039567Y-77575116D01*
X134112000Y-101092000D02*
X128270000Y-95250000D01*
X122696000Y-63994000D02*
X118110000Y-68580000D01*
X122696000Y-57404000D02*
X122696000Y-63994000D01*
X86854000Y-63246000D02*
X92696000Y-57404000D01*
X77724000Y-63246000D02*
X86854000Y-63246000D01*
X209804000Y-95836220D02*
X209725780Y-95758000D01*
X209725780Y-95758000D02*
X182118000Y-95758000D01*
X209804000Y-95836220D02*
X221058220Y-95836220D01*
X221058220Y-95836220D02*
X223774000Y-98552000D01*
X330454000Y-65913000D02*
X330454000Y-71374000D01*
X336655116Y-77575116D02*
X337559567Y-77575116D01*
X330454000Y-71374000D02*
X336655116Y-77575116D01*
X337566000Y-101092000D02*
X331724000Y-95250000D01*
X336404000Y-57404000D02*
X336404000Y-59963000D01*
X331724000Y-95250000D02*
X331724000Y-83410683D01*
X336404000Y-59963000D02*
X330454000Y-65913000D01*
X331724000Y-83410683D02*
X337559567Y-77575116D01*
X326404000Y-57404000D02*
X326404000Y-63806000D01*
X326404000Y-63806000D02*
X321630000Y-68580000D01*
X118618000Y-149288500D02*
X118618000Y-151511000D01*
X119951500Y-147955000D02*
X118618000Y-149288500D01*
X118618000Y-151511000D02*
X116967000Y-153162000D01*
X116967000Y-153162000D02*
X114554000Y-153162000D01*
X114554000Y-153162000D02*
X110617000Y-149225000D01*
X110617000Y-149225000D02*
X107950000Y-149225000D01*
X120650000Y-147955000D02*
X119951500Y-147955000D01*
X323215000Y-147955000D02*
X321818000Y-149352000D01*
X321818000Y-149352000D02*
X321818000Y-151638000D01*
X321818000Y-151638000D02*
X320294000Y-153162000D01*
X324170000Y-147955000D02*
X323215000Y-147955000D01*
X313690000Y-149225000D02*
X311470000Y-149225000D01*
X320294000Y-153162000D02*
X317627000Y-153162000D01*
X317627000Y-153162000D02*
X313690000Y-149225000D01*
X69850000Y-154305000D02*
X78613000Y-154305000D01*
X91440000Y-141478000D02*
X94742000Y-141478000D01*
X94742000Y-141478000D02*
X100330000Y-135890000D01*
X78613000Y-154305000D02*
X91440000Y-141478000D01*
X64755116Y-94560433D02*
X74704884Y-94560433D01*
X134366000Y-95758000D02*
X139877549Y-95758000D01*
X140970000Y-100965000D02*
X140970000Y-94665549D01*
X139877549Y-95758000D02*
X141075116Y-94560433D01*
X141075116Y-94560433D02*
X151024884Y-94560433D01*
X62484000Y-68268451D02*
X62484000Y-63246000D01*
X64755116Y-70539567D02*
X62484000Y-68268451D01*
X139115549Y-68580000D02*
X141075116Y-70539567D01*
X133350000Y-68580000D02*
X139115549Y-68580000D01*
X298262000Y-141478000D02*
X303850000Y-135890000D01*
X294960000Y-141478000D02*
X298262000Y-141478000D01*
X282133000Y-154305000D02*
X294960000Y-141478000D01*
X273370000Y-154305000D02*
X282133000Y-154305000D01*
X268275116Y-100127116D02*
X270002000Y-101854000D01*
X267716000Y-104140000D02*
X270002000Y-101854000D01*
X268275116Y-94560433D02*
X278224884Y-94560433D01*
X263207500Y-104140000D02*
X267716000Y-104140000D01*
X268275116Y-94560433D02*
X268275116Y-100127116D01*
X344595116Y-94560433D02*
X354544884Y-94560433D01*
X337759000Y-95250000D02*
X343905549Y-95250000D01*
X344595116Y-100859884D02*
X344490000Y-100965000D01*
X343905549Y-95250000D02*
X344595116Y-94560433D01*
X344595116Y-94560433D02*
X344595116Y-100859884D01*
X268275116Y-70539567D02*
X265430000Y-67694451D01*
X265430000Y-67694451D02*
X265430000Y-63246000D01*
X342635549Y-68580000D02*
X344595116Y-70539567D01*
X336870000Y-68580000D02*
X342635549Y-68580000D01*
X97390000Y-159785000D02*
X105410000Y-151765000D01*
X97390000Y-168178300D02*
X97390000Y-159785000D01*
X114046000Y-170657700D02*
X114046000Y-166920304D01*
X111129889Y-152404889D02*
X110490000Y-151765000D01*
X114046000Y-166920304D02*
X111129889Y-164004193D01*
X111129889Y-164004193D02*
X111129889Y-152404889D01*
X118390000Y-175001700D02*
X114046000Y-170657700D01*
X300910000Y-159785000D02*
X300910000Y-168178300D01*
X308930000Y-151765000D02*
X300910000Y-159785000D01*
X317500000Y-166854304D02*
X314649889Y-164004193D01*
X321910000Y-175001700D02*
X321910000Y-173828000D01*
X317500000Y-169418000D02*
X317500000Y-166854304D01*
X314649889Y-164004193D02*
X314649889Y-152404889D01*
X314649889Y-152404889D02*
X314010000Y-151765000D01*
X321910000Y-173828000D02*
X317500000Y-169418000D01*
X230632000Y-73406000D02*
X230632000Y-110624000D01*
X230632000Y-110624000D02*
X230752000Y-110744000D01*
M02*
