G04 #@! TF.GenerationSoftware,KiCad,Pcbnew,7.0.8*
G04 #@! TF.CreationDate,2023-12-15T22:05:10+00:00*
G04 #@! TF.ProjectId,BabyHuey,42616279-4875-4657-992e-6b696361645f,1*
G04 #@! TF.SameCoordinates,Original*
G04 #@! TF.FileFunction,Soldermask,Top*
G04 #@! TF.FilePolarity,Negative*
%FSLAX46Y46*%
G04 Gerber Fmt 4.6, Leading zero omitted, Abs format (unit mm)*
G04 Created by KiCad (PCBNEW 7.0.8) date 2023-12-15 22:05:10*
%MOMM*%
%LPD*%
G01*
G04 APERTURE LIST*
G04 Aperture macros list*
%AMRoundRect*
0 Rectangle with rounded corners*
0 $1 Rounding radius*
0 $2 $3 $4 $5 $6 $7 $8 $9 X,Y pos of 4 corners*
0 Add a 4 corners polygon primitive as box body*
4,1,4,$2,$3,$4,$5,$6,$7,$8,$9,$2,$3,0*
0 Add four circle primitives for the rounded corners*
1,1,$1+$1,$2,$3*
1,1,$1+$1,$4,$5*
1,1,$1+$1,$6,$7*
1,1,$1+$1,$8,$9*
0 Add four rect primitives between the rounded corners*
20,1,$1+$1,$2,$3,$4,$5,0*
20,1,$1+$1,$4,$5,$6,$7,0*
20,1,$1+$1,$6,$7,$8,$9,0*
20,1,$1+$1,$8,$9,$2,$3,0*%
%AMHorizOval*
0 Thick line with rounded ends*
0 $1 width*
0 $2 $3 position (X,Y) of the first rounded end (center of the circle)*
0 $4 $5 position (X,Y) of the second rounded end (center of the circle)*
0 Add line between two ends*
20,1,$1,$2,$3,$4,$5,0*
0 Add two circle primitives to create the rounded ends*
1,1,$1,$2,$3*
1,1,$1,$4,$5*%
G04 Aperture macros list end*
%ADD10C,1.600000*%
%ADD11R,1.800000X1.800000*%
%ADD12C,1.800000*%
%ADD13RoundRect,0.249999X-1.300001X-1.300001X1.300001X-1.300001X1.300001X1.300001X-1.300001X1.300001X0*%
%ADD14C,3.200000*%
%ADD15C,0.800000*%
%ADD16C,6.400000*%
%ADD17R,1.717500X1.800000*%
%ADD18O,1.717500X1.800000*%
%ADD19C,1.260000*%
%ADD20C,2.800000*%
%ADD21R,1.100000X1.800000*%
%ADD22RoundRect,0.275000X0.275000X0.625000X-0.275000X0.625000X-0.275000X-0.625000X0.275000X-0.625000X0*%
%ADD23RoundRect,0.275000X-0.275000X-0.625000X0.275000X-0.625000X0.275000X0.625000X-0.275000X0.625000X0*%
%ADD24R,2.400000X2.400000*%
%ADD25C,2.400000*%
%ADD26R,3.200000X3.200000*%
%ADD27O,3.200000X3.200000*%
%ADD28R,2.600000X2.600000*%
%ADD29C,2.600000*%
%ADD30R,2.500000X2.500000*%
%ADD31C,2.500000*%
%ADD32R,2.200000X2.200000*%
%ADD33O,2.200000X2.200000*%
%ADD34O,1.600000X1.600000*%
%ADD35O,2.400000X2.400000*%
%ADD36HorizOval,1.600000X0.000000X0.000000X0.000000X0.000000X0*%
%ADD37C,3.000000*%
%ADD38C,2.650000*%
%ADD39R,1.600000X1.600000*%
%ADD40R,2.000000X2.000000*%
%ADD41C,2.000000*%
%ADD42R,1.905000X2.000000*%
%ADD43O,1.905000X2.000000*%
%ADD44C,4.000000*%
%ADD45O,3.750000X3.750000*%
G04 APERTURE END LIST*
D10*
X136652000Y-171450000D03*
X141652000Y-171450000D03*
D11*
X130175000Y-142875000D03*
D12*
X127635000Y-142875000D03*
D13*
X246380000Y-57150000D03*
D14*
X368650000Y-190670000D03*
X368650000Y-57110000D03*
X311410000Y-127070000D03*
X165130000Y-57110000D03*
X254170000Y-190670000D03*
X50650000Y-190670000D03*
X107890000Y-127070000D03*
X50650000Y-57110000D03*
D15*
X162730000Y-190670000D03*
X163432944Y-188972944D03*
X163432944Y-192367056D03*
X165130000Y-188270000D03*
D16*
X165130000Y-190670000D03*
D15*
X165130000Y-193070000D03*
X166827056Y-188972944D03*
X166827056Y-192367056D03*
X167530000Y-190670000D03*
X251770000Y-57110000D03*
X252472944Y-55412944D03*
X252472944Y-58807056D03*
X254170000Y-54710000D03*
D16*
X254170000Y-57110000D03*
D15*
X254170000Y-59510000D03*
X255867056Y-55412944D03*
X255867056Y-58807056D03*
X256570000Y-57110000D03*
D17*
X143946500Y-116395500D03*
D18*
X146236500Y-116395500D03*
X148526500Y-116395500D03*
D19*
X105410000Y-151765000D03*
X107950000Y-149225000D03*
X110490000Y-151765000D03*
D20*
X344490000Y-100965000D03*
X311470000Y-116840000D03*
X263210000Y-104140000D03*
X343916000Y-162306000D03*
X275656000Y-162306000D03*
D19*
X321630000Y-113030000D03*
X324170000Y-115570000D03*
X321630000Y-118110000D03*
X301310000Y-113030000D03*
X303850000Y-115570000D03*
X301310000Y-118110000D03*
X308930000Y-151765000D03*
X311470000Y-149225000D03*
X314010000Y-151765000D03*
D17*
X347466500Y-116395500D03*
D18*
X349756500Y-116395500D03*
X352046500Y-116395500D03*
D21*
X364810000Y-118535500D03*
D22*
X363540000Y-120605500D03*
X362270000Y-118535500D03*
D21*
X267909000Y-121050000D03*
D23*
X269179000Y-118980000D03*
X270449000Y-121050000D03*
D17*
X279593000Y-119126000D03*
D18*
X277303000Y-119126000D03*
X275013000Y-119126000D03*
D21*
X356237500Y-120415000D03*
D23*
X357507500Y-118345000D03*
X358777500Y-120415000D03*
D21*
X264480000Y-119234000D03*
D22*
X263210000Y-121304000D03*
X261940000Y-119234000D03*
D21*
X324170000Y-143910000D03*
D23*
X325440000Y-141840000D03*
X326710000Y-143910000D03*
D21*
X326710000Y-147555000D03*
D22*
X325440000Y-149625000D03*
X324170000Y-147555000D03*
D11*
X333695000Y-142875000D03*
D12*
X331155000Y-142875000D03*
D11*
X333695000Y-148590000D03*
D12*
X331155000Y-148590000D03*
D24*
X307152000Y-76200000D03*
D25*
X314652000Y-76200000D03*
D10*
X340614000Y-171704000D03*
X345614000Y-171704000D03*
D26*
X174244000Y-169418000D03*
D27*
X189484000Y-169418000D03*
D26*
X201422000Y-175260000D03*
D27*
X186182000Y-175260000D03*
D26*
X174244000Y-190500000D03*
D27*
X174244000Y-175260000D03*
D26*
X180848000Y-175260000D03*
D27*
X180848000Y-190500000D03*
D25*
X221742000Y-175260000D03*
X206742000Y-175260000D03*
D20*
X140970000Y-100965000D03*
X107950000Y-116840000D03*
X59690000Y-104394000D03*
D21*
X152717500Y-120415000D03*
D23*
X153987500Y-118345000D03*
X155257500Y-120415000D03*
D28*
X184992000Y-58420000D03*
D29*
X179992000Y-58420000D03*
D28*
X235712000Y-58420000D03*
D29*
X230712000Y-58420000D03*
D28*
X197612000Y-58420000D03*
D29*
X192612000Y-58420000D03*
D28*
X210312000Y-58420000D03*
D29*
X205312000Y-58420000D03*
D28*
X222758000Y-58420000D03*
D29*
X217758000Y-58420000D03*
D28*
X72136000Y-179078000D03*
D29*
X77136000Y-179078000D03*
D28*
X151130000Y-173490000D03*
D29*
X156130000Y-173490000D03*
D28*
X354878000Y-173490000D03*
D29*
X359878000Y-173490000D03*
D30*
X132696000Y-57404000D03*
D31*
X122696000Y-57404000D03*
X112696000Y-57404000D03*
X102696000Y-57404000D03*
X92696000Y-57404000D03*
X82696000Y-57404000D03*
D30*
X336404000Y-57404000D03*
D31*
X326404000Y-57404000D03*
X316404000Y-57404000D03*
X306404000Y-57404000D03*
X296404000Y-57404000D03*
X286404000Y-57404000D03*
D32*
X230632000Y-65786000D03*
D33*
X230632000Y-73406000D03*
D10*
X208280000Y-85598000D03*
D34*
X218440000Y-85598000D03*
D10*
X218440000Y-80264000D03*
D34*
X208280000Y-80264000D03*
D10*
X133858000Y-176530000D03*
D34*
X144018000Y-176530000D03*
D10*
X133858000Y-171450000D03*
D34*
X123698000Y-171450000D03*
D10*
X91186000Y-168910000D03*
D34*
X91186000Y-179070000D03*
D10*
X151765000Y-129540000D03*
D34*
X161925000Y-129540000D03*
D10*
X161798000Y-124587000D03*
D34*
X151638000Y-124587000D03*
D10*
X151892000Y-113284000D03*
D34*
X162052000Y-113284000D03*
D25*
X100330000Y-135890000D03*
D35*
X115570000Y-135890000D03*
D10*
X88174103Y-75220103D03*
D36*
X80989898Y-68035898D03*
D10*
X164374103Y-75220000D03*
D36*
X157189898Y-68035795D03*
D10*
X74676000Y-104394000D03*
D34*
X84836000Y-104394000D03*
D10*
X124206000Y-95758000D03*
D34*
X134366000Y-95758000D03*
D25*
X77724000Y-63246000D03*
D35*
X62484000Y-63246000D03*
D25*
X133350000Y-68580000D03*
D35*
X118110000Y-68580000D03*
D10*
X337820000Y-176784000D03*
D34*
X347980000Y-176784000D03*
D10*
X319090000Y-151130000D03*
D34*
X319090000Y-140970000D03*
D10*
X290068000Y-168910000D03*
D34*
X290068000Y-179070000D03*
D10*
X337820000Y-171704000D03*
D34*
X327660000Y-171704000D03*
D10*
X325440000Y-153416000D03*
D34*
X335600000Y-153416000D03*
D10*
X294894000Y-168910000D03*
D34*
X294894000Y-179070000D03*
D10*
X327660000Y-168084500D03*
D34*
X337820000Y-168084500D03*
D25*
X294960000Y-156718000D03*
D35*
X294960000Y-141478000D03*
D25*
X343855000Y-141478000D03*
D35*
X343855000Y-156718000D03*
D10*
X291150000Y-127762000D03*
D34*
X291150000Y-117602000D03*
D10*
X294640000Y-117602000D03*
D34*
X294640000Y-127762000D03*
D10*
X287594000Y-127762000D03*
D34*
X287594000Y-117602000D03*
D10*
X331978000Y-117602000D03*
D34*
X331978000Y-127762000D03*
D10*
X343474000Y-107315000D03*
D34*
X353634000Y-107315000D03*
D10*
X267020000Y-128270000D03*
D34*
X277180000Y-128270000D03*
D10*
X355285000Y-129540000D03*
D34*
X365445000Y-129540000D03*
D10*
X284165000Y-127762000D03*
D34*
X284165000Y-117602000D03*
D10*
X343728000Y-127762000D03*
D34*
X343728000Y-117602000D03*
D10*
X261686000Y-115570000D03*
D34*
X271846000Y-115570000D03*
D10*
X365318000Y-124587000D03*
D34*
X355158000Y-124587000D03*
D10*
X272034000Y-124714000D03*
D34*
X261874000Y-124714000D03*
D10*
X355412000Y-113284000D03*
D34*
X365572000Y-113284000D03*
D25*
X303850000Y-135890000D03*
D35*
X319090000Y-135890000D03*
D25*
X273370000Y-154305000D03*
D35*
X273370000Y-139065000D03*
D25*
X337566000Y-116332000D03*
D35*
X337566000Y-101092000D03*
D10*
X293950205Y-75220000D03*
D36*
X286766000Y-68035795D03*
D10*
X367828103Y-75220000D03*
D36*
X360643898Y-68035795D03*
D10*
X270002000Y-101854000D03*
D34*
X280162000Y-101854000D03*
D10*
X327599000Y-95250000D03*
D34*
X337759000Y-95250000D03*
D25*
X336870000Y-68580000D03*
D35*
X321630000Y-68580000D03*
D10*
X58166000Y-115570000D03*
D34*
X68326000Y-115570000D03*
D10*
X80645000Y-127762000D03*
D34*
X80645000Y-117602000D03*
D10*
X87630000Y-127762000D03*
D34*
X87630000Y-117602000D03*
D21*
X64389000Y-121050000D03*
D23*
X65659000Y-118980000D03*
X66929000Y-121050000D03*
D21*
X60960000Y-119234000D03*
D22*
X59690000Y-121304000D03*
X58420000Y-119234000D03*
D19*
X97790000Y-113030000D03*
X100330000Y-115570000D03*
X97790000Y-118110000D03*
D10*
X68326000Y-112014000D03*
D34*
X58166000Y-112014000D03*
D32*
X191008000Y-66548000D03*
D33*
X191008000Y-74168000D03*
D32*
X183642000Y-66548000D03*
D33*
X183642000Y-74168000D03*
D32*
X176276000Y-74168000D03*
D33*
X176276000Y-66548000D03*
D32*
X198374000Y-74168000D03*
D33*
X198374000Y-66548000D03*
D25*
X153924000Y-63246000D03*
D35*
X138684000Y-63246000D03*
D37*
X170434000Y-116078000D03*
X171450000Y-125476000D03*
D38*
X172720000Y-120904000D03*
D37*
X176784000Y-125476000D03*
X194056000Y-125476000D03*
D38*
X198120000Y-120904000D03*
D37*
X199390000Y-125476000D03*
X200406000Y-116078000D03*
D12*
X177800000Y-89154000D03*
X179850000Y-81654000D03*
D24*
X189992000Y-87630000D03*
D25*
X197492000Y-87630000D03*
D24*
X208400000Y-119380000D03*
D25*
X215900000Y-119380000D03*
D24*
X244310041Y-159004000D03*
D25*
X249310041Y-159004000D03*
X353380000Y-139700000D03*
X353380000Y-162200000D03*
X284292000Y-139700000D03*
X284292000Y-162200000D03*
D24*
X299612000Y-98806000D03*
D25*
X304612000Y-98806000D03*
D24*
X317820000Y-98806000D03*
D25*
X322820000Y-98806000D03*
D39*
X140906500Y-112077500D03*
D34*
X148526500Y-112077500D03*
D39*
X282514000Y-113792000D03*
D34*
X274894000Y-113792000D03*
D39*
X344426500Y-112077500D03*
D34*
X352046500Y-112077500D03*
D25*
X217932000Y-185166000D03*
D35*
X187452000Y-185166000D03*
D24*
X238252000Y-110744000D03*
D25*
X230752000Y-110744000D03*
D24*
X242824000Y-125984000D03*
D25*
X250324000Y-125984000D03*
D24*
X243840000Y-92456000D03*
D25*
X248840000Y-92456000D03*
D24*
X243840000Y-77470000D03*
D25*
X248840000Y-77470000D03*
D40*
X225806000Y-91694000D03*
D41*
X225806000Y-86694000D03*
D10*
X193548000Y-111760000D03*
D34*
X193548000Y-101600000D03*
D10*
X198882000Y-111760000D03*
D34*
X198882000Y-101600000D03*
D10*
X181356000Y-111760000D03*
D34*
X181356000Y-101600000D03*
D42*
X188214000Y-116459000D03*
D43*
X185674000Y-116459000D03*
X183134000Y-116459000D03*
D10*
X139954000Y-107315000D03*
D34*
X150114000Y-107315000D03*
D25*
X80772000Y-139700000D03*
X80772000Y-162200000D03*
X149860000Y-139700000D03*
X149860000Y-162200000D03*
D39*
X187452000Y-111760000D03*
D34*
X187452000Y-104140000D03*
D25*
X69850000Y-154305000D03*
D35*
X69850000Y-139065000D03*
D11*
X130175000Y-148590000D03*
D12*
X127635000Y-148590000D03*
D10*
X123698000Y-168148000D03*
D34*
X133858000Y-168148000D03*
D21*
X120650000Y-143910000D03*
D23*
X121920000Y-141840000D03*
X123190000Y-143910000D03*
D10*
X121920000Y-153416000D03*
D34*
X132080000Y-153416000D03*
D21*
X123190000Y-147555000D03*
D22*
X121920000Y-149625000D03*
X120650000Y-147555000D03*
D25*
X91440000Y-156718000D03*
D35*
X91440000Y-141478000D03*
D20*
X72136000Y-162306000D03*
D10*
X112395000Y-107950000D03*
D34*
X102235000Y-107950000D03*
D10*
X161925000Y-134874000D03*
D34*
X151765000Y-134874000D03*
D10*
X279146000Y-134620000D03*
D34*
X289306000Y-134620000D03*
D10*
X257556000Y-133604000D03*
D34*
X267716000Y-133604000D03*
D32*
X235712000Y-73406000D03*
D33*
X235712000Y-65786000D03*
D10*
X84074000Y-127762000D03*
D34*
X84074000Y-117602000D03*
D24*
X96092000Y-98806000D03*
D25*
X101092000Y-98806000D03*
D10*
X63500000Y-128270000D03*
D34*
X73660000Y-128270000D03*
D17*
X76073000Y-119126000D03*
D18*
X73783000Y-119126000D03*
X71493000Y-119126000D03*
D32*
X217678000Y-65532000D03*
D33*
X217678000Y-73152000D03*
D21*
X161290000Y-118535500D03*
D22*
X160020000Y-120605500D03*
X158750000Y-118535500D03*
D39*
X97536000Y-129475112D03*
D10*
X97536000Y-126975112D03*
D24*
X114300000Y-98806000D03*
D25*
X119300000Y-98806000D03*
D24*
X103632000Y-76200000D03*
D25*
X111132000Y-76200000D03*
D24*
X223990041Y-126492000D03*
D25*
X228990041Y-126492000D03*
D10*
X174244000Y-101600000D03*
D34*
X174244000Y-111760000D03*
D32*
X222758000Y-73152000D03*
D33*
X222758000Y-65532000D03*
D39*
X219964000Y-109982000D03*
D10*
X222464000Y-109982000D03*
X226314000Y-80264000D03*
D34*
X236474000Y-80264000D03*
D24*
X209804000Y-95836220D03*
D25*
X209804000Y-103336220D03*
D39*
X225044000Y-140716000D03*
D34*
X225044000Y-148336000D03*
D10*
X236728000Y-148336000D03*
D34*
X236728000Y-138176000D03*
D10*
X216408000Y-138176000D03*
D34*
X216408000Y-148336000D03*
D10*
X228854000Y-148336000D03*
D34*
X228854000Y-138176000D03*
D10*
X232918000Y-138176000D03*
D34*
X232918000Y-148336000D03*
D10*
X220726000Y-148336000D03*
D34*
X220726000Y-138176000D03*
D42*
X224790000Y-153035000D03*
D43*
X222250000Y-153035000D03*
X219710000Y-153035000D03*
D40*
X244266323Y-144272000D03*
D41*
X249266323Y-144272000D03*
D37*
X207137000Y-152654000D03*
X208153000Y-162052000D03*
D38*
X209423000Y-157480000D03*
D37*
X213487000Y-162052000D03*
X230759000Y-162052000D03*
D38*
X234823000Y-157480000D03*
D37*
X236093000Y-162052000D03*
X237109000Y-152654000D03*
D10*
X140208000Y-127762000D03*
D34*
X140208000Y-117602000D03*
D10*
X91186000Y-117602000D03*
D34*
X91186000Y-127762000D03*
D25*
X134112000Y-116332000D03*
D35*
X134112000Y-101092000D03*
D10*
X128524000Y-117602000D03*
D34*
X128524000Y-127762000D03*
D25*
X140335000Y-141478000D03*
D35*
X140335000Y-156718000D03*
D20*
X140208000Y-162560000D03*
D19*
X118110000Y-113030000D03*
X120650000Y-115570000D03*
X118110000Y-118110000D03*
D39*
X78994000Y-113792000D03*
D34*
X71374000Y-113792000D03*
D10*
X115570000Y-150876000D03*
D34*
X115570000Y-140716000D03*
D19*
X235458000Y-178308000D03*
X232918000Y-175768000D03*
X235458000Y-173228000D03*
D28*
X251540000Y-175268000D03*
D29*
X256540000Y-175268000D03*
D10*
X243332000Y-183388000D03*
D34*
X243332000Y-173228000D03*
D10*
X86360000Y-168910000D03*
D34*
X86360000Y-179070000D03*
D28*
X275670000Y-179078000D03*
D29*
X280670000Y-179078000D03*
D25*
X280670000Y-63246000D03*
D35*
X265430000Y-63246000D03*
D25*
X223774000Y-98552000D03*
D35*
X239014000Y-98552000D03*
D39*
X301244000Y-129540000D03*
D10*
X301244000Y-127040000D03*
D19*
X107950000Y-145781000D03*
X105410000Y-143241000D03*
X107950000Y-140701000D03*
X210312000Y-70358000D03*
X207772000Y-72898000D03*
X205232000Y-70358000D03*
X311404000Y-146035000D03*
X308864000Y-143495000D03*
X311404000Y-140955000D03*
D31*
X107890000Y-171590000D03*
D44*
X101401000Y-180521800D03*
X97390000Y-175001700D03*
X97390000Y-168178300D03*
X101400600Y-162658200D03*
X107890000Y-160549600D03*
X114379400Y-162658200D03*
X118390000Y-168178300D03*
X118390000Y-175001700D03*
X114379400Y-180521800D03*
D31*
X69730000Y-82550000D03*
D45*
X64755116Y-94560433D03*
X57719567Y-87524884D03*
X57719567Y-77575116D03*
X64755116Y-70539567D03*
X74704884Y-70539567D03*
X81740433Y-77575116D03*
X81740433Y-87524884D03*
X74704884Y-94560433D03*
D31*
X146050000Y-82550000D03*
D45*
X141075116Y-94560433D03*
X134039567Y-87524884D03*
X134039567Y-77575116D03*
X141075116Y-70539567D03*
X151024884Y-70539567D03*
X158060433Y-77575116D03*
X158060433Y-87524884D03*
X151024884Y-94560433D03*
D31*
X311410000Y-171590000D03*
D44*
X304921000Y-180521800D03*
X300910000Y-175001700D03*
X300910000Y-168178300D03*
X304920600Y-162658200D03*
X311410000Y-160549600D03*
X317899400Y-162658200D03*
X321910000Y-168178300D03*
X321910000Y-175001700D03*
X317899400Y-180521800D03*
D31*
X349570000Y-82550000D03*
D45*
X344595116Y-94560433D03*
X337559567Y-87524884D03*
X337559567Y-77575116D03*
X344595116Y-70539567D03*
X354544884Y-70539567D03*
X361580433Y-77575116D03*
X361580433Y-87524884D03*
X354544884Y-94560433D03*
D31*
X273250000Y-82550000D03*
D45*
X268275116Y-94560433D03*
X261239567Y-87524884D03*
X261239567Y-77575116D03*
X268275116Y-70539567D03*
X278224884Y-70539567D03*
X285260433Y-77575116D03*
X285260433Y-87524884D03*
X278224884Y-94560433D03*
M02*
