G04 #@! TF.GenerationSoftware,KiCad,Pcbnew,7.0.8*
G04 #@! TF.CreationDate,2023-12-15T22:05:10+00:00*
G04 #@! TF.ProjectId,BabyHuey,42616279-4875-4657-992e-6b696361645f,1*
G04 #@! TF.SameCoordinates,Original*
G04 #@! TF.FileFunction,Legend,Bot*
G04 #@! TF.FilePolarity,Positive*
%FSLAX46Y46*%
G04 Gerber Fmt 4.6, Leading zero omitted, Abs format (unit mm)*
G04 Created by KiCad (PCBNEW 7.0.8) date 2023-12-15 22:05:10*
%MOMM*%
%LPD*%
G01*
G04 APERTURE LIST*
%ADD10C,0.150000*%
%ADD11C,0.120000*%
G04 APERTURE END LIST*
D10*
X108334285Y-155804819D02*
X108334285Y-156614342D01*
X108334285Y-156614342D02*
X108286666Y-156709580D01*
X108286666Y-156709580D02*
X108239047Y-156757200D01*
X108239047Y-156757200D02*
X108143809Y-156804819D01*
X108143809Y-156804819D02*
X107953333Y-156804819D01*
X107953333Y-156804819D02*
X107858095Y-156757200D01*
X107858095Y-156757200D02*
X107810476Y-156709580D01*
X107810476Y-156709580D02*
X107762857Y-156614342D01*
X107762857Y-156614342D02*
X107762857Y-155804819D01*
X107381904Y-155804819D02*
X106762857Y-155804819D01*
X106762857Y-155804819D02*
X107096190Y-156185771D01*
X107096190Y-156185771D02*
X106953333Y-156185771D01*
X106953333Y-156185771D02*
X106858095Y-156233390D01*
X106858095Y-156233390D02*
X106810476Y-156281009D01*
X106810476Y-156281009D02*
X106762857Y-156376247D01*
X106762857Y-156376247D02*
X106762857Y-156614342D01*
X106762857Y-156614342D02*
X106810476Y-156709580D01*
X106810476Y-156709580D02*
X106858095Y-156757200D01*
X106858095Y-156757200D02*
X106953333Y-156804819D01*
X106953333Y-156804819D02*
X107239047Y-156804819D01*
X107239047Y-156804819D02*
X107334285Y-156757200D01*
X107334285Y-156757200D02*
X107381904Y-156709580D01*
X106143809Y-155804819D02*
X106048571Y-155804819D01*
X106048571Y-155804819D02*
X105953333Y-155852438D01*
X105953333Y-155852438D02*
X105905714Y-155900057D01*
X105905714Y-155900057D02*
X105858095Y-155995295D01*
X105858095Y-155995295D02*
X105810476Y-156185771D01*
X105810476Y-156185771D02*
X105810476Y-156423866D01*
X105810476Y-156423866D02*
X105858095Y-156614342D01*
X105858095Y-156614342D02*
X105905714Y-156709580D01*
X105905714Y-156709580D02*
X105953333Y-156757200D01*
X105953333Y-156757200D02*
X106048571Y-156804819D01*
X106048571Y-156804819D02*
X106143809Y-156804819D01*
X106143809Y-156804819D02*
X106239047Y-156757200D01*
X106239047Y-156757200D02*
X106286666Y-156709580D01*
X106286666Y-156709580D02*
X106334285Y-156614342D01*
X106334285Y-156614342D02*
X106381904Y-156423866D01*
X106381904Y-156423866D02*
X106381904Y-156185771D01*
X106381904Y-156185771D02*
X106334285Y-155995295D01*
X106334285Y-155995295D02*
X106286666Y-155900057D01*
X106286666Y-155900057D02*
X106239047Y-155852438D01*
X106239047Y-155852438D02*
X106143809Y-155804819D01*
X104858095Y-156804819D02*
X105429523Y-156804819D01*
X105143809Y-156804819D02*
X105143809Y-155804819D01*
X105143809Y-155804819D02*
X105239047Y-155947676D01*
X105239047Y-155947676D02*
X105334285Y-156042914D01*
X105334285Y-156042914D02*
X105429523Y-156090533D01*
X71444285Y-99784819D02*
X71444285Y-100594342D01*
X71444285Y-100594342D02*
X71396666Y-100689580D01*
X71396666Y-100689580D02*
X71349047Y-100737200D01*
X71349047Y-100737200D02*
X71253809Y-100784819D01*
X71253809Y-100784819D02*
X71063333Y-100784819D01*
X71063333Y-100784819D02*
X70968095Y-100737200D01*
X70968095Y-100737200D02*
X70920476Y-100689580D01*
X70920476Y-100689580D02*
X70872857Y-100594342D01*
X70872857Y-100594342D02*
X70872857Y-99784819D01*
X70491904Y-99784819D02*
X69872857Y-99784819D01*
X69872857Y-99784819D02*
X70206190Y-100165771D01*
X70206190Y-100165771D02*
X70063333Y-100165771D01*
X70063333Y-100165771D02*
X69968095Y-100213390D01*
X69968095Y-100213390D02*
X69920476Y-100261009D01*
X69920476Y-100261009D02*
X69872857Y-100356247D01*
X69872857Y-100356247D02*
X69872857Y-100594342D01*
X69872857Y-100594342D02*
X69920476Y-100689580D01*
X69920476Y-100689580D02*
X69968095Y-100737200D01*
X69968095Y-100737200D02*
X70063333Y-100784819D01*
X70063333Y-100784819D02*
X70349047Y-100784819D01*
X70349047Y-100784819D02*
X70444285Y-100737200D01*
X70444285Y-100737200D02*
X70491904Y-100689580D01*
X69253809Y-99784819D02*
X69158571Y-99784819D01*
X69158571Y-99784819D02*
X69063333Y-99832438D01*
X69063333Y-99832438D02*
X69015714Y-99880057D01*
X69015714Y-99880057D02*
X68968095Y-99975295D01*
X68968095Y-99975295D02*
X68920476Y-100165771D01*
X68920476Y-100165771D02*
X68920476Y-100403866D01*
X68920476Y-100403866D02*
X68968095Y-100594342D01*
X68968095Y-100594342D02*
X69015714Y-100689580D01*
X69015714Y-100689580D02*
X69063333Y-100737200D01*
X69063333Y-100737200D02*
X69158571Y-100784819D01*
X69158571Y-100784819D02*
X69253809Y-100784819D01*
X69253809Y-100784819D02*
X69349047Y-100737200D01*
X69349047Y-100737200D02*
X69396666Y-100689580D01*
X69396666Y-100689580D02*
X69444285Y-100594342D01*
X69444285Y-100594342D02*
X69491904Y-100403866D01*
X69491904Y-100403866D02*
X69491904Y-100165771D01*
X69491904Y-100165771D02*
X69444285Y-99975295D01*
X69444285Y-99975295D02*
X69396666Y-99880057D01*
X69396666Y-99880057D02*
X69349047Y-99832438D01*
X69349047Y-99832438D02*
X69253809Y-99784819D01*
X68539523Y-99880057D02*
X68491904Y-99832438D01*
X68491904Y-99832438D02*
X68396666Y-99784819D01*
X68396666Y-99784819D02*
X68158571Y-99784819D01*
X68158571Y-99784819D02*
X68063333Y-99832438D01*
X68063333Y-99832438D02*
X68015714Y-99880057D01*
X68015714Y-99880057D02*
X67968095Y-99975295D01*
X67968095Y-99975295D02*
X67968095Y-100070533D01*
X67968095Y-100070533D02*
X68015714Y-100213390D01*
X68015714Y-100213390D02*
X68587142Y-100784819D01*
X68587142Y-100784819D02*
X67968095Y-100784819D01*
X147764285Y-99784819D02*
X147764285Y-100594342D01*
X147764285Y-100594342D02*
X147716666Y-100689580D01*
X147716666Y-100689580D02*
X147669047Y-100737200D01*
X147669047Y-100737200D02*
X147573809Y-100784819D01*
X147573809Y-100784819D02*
X147383333Y-100784819D01*
X147383333Y-100784819D02*
X147288095Y-100737200D01*
X147288095Y-100737200D02*
X147240476Y-100689580D01*
X147240476Y-100689580D02*
X147192857Y-100594342D01*
X147192857Y-100594342D02*
X147192857Y-99784819D01*
X146811904Y-99784819D02*
X146192857Y-99784819D01*
X146192857Y-99784819D02*
X146526190Y-100165771D01*
X146526190Y-100165771D02*
X146383333Y-100165771D01*
X146383333Y-100165771D02*
X146288095Y-100213390D01*
X146288095Y-100213390D02*
X146240476Y-100261009D01*
X146240476Y-100261009D02*
X146192857Y-100356247D01*
X146192857Y-100356247D02*
X146192857Y-100594342D01*
X146192857Y-100594342D02*
X146240476Y-100689580D01*
X146240476Y-100689580D02*
X146288095Y-100737200D01*
X146288095Y-100737200D02*
X146383333Y-100784819D01*
X146383333Y-100784819D02*
X146669047Y-100784819D01*
X146669047Y-100784819D02*
X146764285Y-100737200D01*
X146764285Y-100737200D02*
X146811904Y-100689580D01*
X145573809Y-99784819D02*
X145478571Y-99784819D01*
X145478571Y-99784819D02*
X145383333Y-99832438D01*
X145383333Y-99832438D02*
X145335714Y-99880057D01*
X145335714Y-99880057D02*
X145288095Y-99975295D01*
X145288095Y-99975295D02*
X145240476Y-100165771D01*
X145240476Y-100165771D02*
X145240476Y-100403866D01*
X145240476Y-100403866D02*
X145288095Y-100594342D01*
X145288095Y-100594342D02*
X145335714Y-100689580D01*
X145335714Y-100689580D02*
X145383333Y-100737200D01*
X145383333Y-100737200D02*
X145478571Y-100784819D01*
X145478571Y-100784819D02*
X145573809Y-100784819D01*
X145573809Y-100784819D02*
X145669047Y-100737200D01*
X145669047Y-100737200D02*
X145716666Y-100689580D01*
X145716666Y-100689580D02*
X145764285Y-100594342D01*
X145764285Y-100594342D02*
X145811904Y-100403866D01*
X145811904Y-100403866D02*
X145811904Y-100165771D01*
X145811904Y-100165771D02*
X145764285Y-99975295D01*
X145764285Y-99975295D02*
X145716666Y-99880057D01*
X145716666Y-99880057D02*
X145669047Y-99832438D01*
X145669047Y-99832438D02*
X145573809Y-99784819D01*
X144907142Y-99784819D02*
X144288095Y-99784819D01*
X144288095Y-99784819D02*
X144621428Y-100165771D01*
X144621428Y-100165771D02*
X144478571Y-100165771D01*
X144478571Y-100165771D02*
X144383333Y-100213390D01*
X144383333Y-100213390D02*
X144335714Y-100261009D01*
X144335714Y-100261009D02*
X144288095Y-100356247D01*
X144288095Y-100356247D02*
X144288095Y-100594342D01*
X144288095Y-100594342D02*
X144335714Y-100689580D01*
X144335714Y-100689580D02*
X144383333Y-100737200D01*
X144383333Y-100737200D02*
X144478571Y-100784819D01*
X144478571Y-100784819D02*
X144764285Y-100784819D01*
X144764285Y-100784819D02*
X144859523Y-100737200D01*
X144859523Y-100737200D02*
X144907142Y-100689580D01*
X311854285Y-155804819D02*
X311854285Y-156614342D01*
X311854285Y-156614342D02*
X311806666Y-156709580D01*
X311806666Y-156709580D02*
X311759047Y-156757200D01*
X311759047Y-156757200D02*
X311663809Y-156804819D01*
X311663809Y-156804819D02*
X311473333Y-156804819D01*
X311473333Y-156804819D02*
X311378095Y-156757200D01*
X311378095Y-156757200D02*
X311330476Y-156709580D01*
X311330476Y-156709580D02*
X311282857Y-156614342D01*
X311282857Y-156614342D02*
X311282857Y-155804819D01*
X310378095Y-156138152D02*
X310378095Y-156804819D01*
X310616190Y-155757200D02*
X310854285Y-156471485D01*
X310854285Y-156471485D02*
X310235238Y-156471485D01*
X309663809Y-155804819D02*
X309568571Y-155804819D01*
X309568571Y-155804819D02*
X309473333Y-155852438D01*
X309473333Y-155852438D02*
X309425714Y-155900057D01*
X309425714Y-155900057D02*
X309378095Y-155995295D01*
X309378095Y-155995295D02*
X309330476Y-156185771D01*
X309330476Y-156185771D02*
X309330476Y-156423866D01*
X309330476Y-156423866D02*
X309378095Y-156614342D01*
X309378095Y-156614342D02*
X309425714Y-156709580D01*
X309425714Y-156709580D02*
X309473333Y-156757200D01*
X309473333Y-156757200D02*
X309568571Y-156804819D01*
X309568571Y-156804819D02*
X309663809Y-156804819D01*
X309663809Y-156804819D02*
X309759047Y-156757200D01*
X309759047Y-156757200D02*
X309806666Y-156709580D01*
X309806666Y-156709580D02*
X309854285Y-156614342D01*
X309854285Y-156614342D02*
X309901904Y-156423866D01*
X309901904Y-156423866D02*
X309901904Y-156185771D01*
X309901904Y-156185771D02*
X309854285Y-155995295D01*
X309854285Y-155995295D02*
X309806666Y-155900057D01*
X309806666Y-155900057D02*
X309759047Y-155852438D01*
X309759047Y-155852438D02*
X309663809Y-155804819D01*
X308378095Y-156804819D02*
X308949523Y-156804819D01*
X308663809Y-156804819D02*
X308663809Y-155804819D01*
X308663809Y-155804819D02*
X308759047Y-155947676D01*
X308759047Y-155947676D02*
X308854285Y-156042914D01*
X308854285Y-156042914D02*
X308949523Y-156090533D01*
X351284285Y-99784819D02*
X351284285Y-100594342D01*
X351284285Y-100594342D02*
X351236666Y-100689580D01*
X351236666Y-100689580D02*
X351189047Y-100737200D01*
X351189047Y-100737200D02*
X351093809Y-100784819D01*
X351093809Y-100784819D02*
X350903333Y-100784819D01*
X350903333Y-100784819D02*
X350808095Y-100737200D01*
X350808095Y-100737200D02*
X350760476Y-100689580D01*
X350760476Y-100689580D02*
X350712857Y-100594342D01*
X350712857Y-100594342D02*
X350712857Y-99784819D01*
X349808095Y-100118152D02*
X349808095Y-100784819D01*
X350046190Y-99737200D02*
X350284285Y-100451485D01*
X350284285Y-100451485D02*
X349665238Y-100451485D01*
X349093809Y-99784819D02*
X348998571Y-99784819D01*
X348998571Y-99784819D02*
X348903333Y-99832438D01*
X348903333Y-99832438D02*
X348855714Y-99880057D01*
X348855714Y-99880057D02*
X348808095Y-99975295D01*
X348808095Y-99975295D02*
X348760476Y-100165771D01*
X348760476Y-100165771D02*
X348760476Y-100403866D01*
X348760476Y-100403866D02*
X348808095Y-100594342D01*
X348808095Y-100594342D02*
X348855714Y-100689580D01*
X348855714Y-100689580D02*
X348903333Y-100737200D01*
X348903333Y-100737200D02*
X348998571Y-100784819D01*
X348998571Y-100784819D02*
X349093809Y-100784819D01*
X349093809Y-100784819D02*
X349189047Y-100737200D01*
X349189047Y-100737200D02*
X349236666Y-100689580D01*
X349236666Y-100689580D02*
X349284285Y-100594342D01*
X349284285Y-100594342D02*
X349331904Y-100403866D01*
X349331904Y-100403866D02*
X349331904Y-100165771D01*
X349331904Y-100165771D02*
X349284285Y-99975295D01*
X349284285Y-99975295D02*
X349236666Y-99880057D01*
X349236666Y-99880057D02*
X349189047Y-99832438D01*
X349189047Y-99832438D02*
X349093809Y-99784819D01*
X348427142Y-99784819D02*
X347808095Y-99784819D01*
X347808095Y-99784819D02*
X348141428Y-100165771D01*
X348141428Y-100165771D02*
X347998571Y-100165771D01*
X347998571Y-100165771D02*
X347903333Y-100213390D01*
X347903333Y-100213390D02*
X347855714Y-100261009D01*
X347855714Y-100261009D02*
X347808095Y-100356247D01*
X347808095Y-100356247D02*
X347808095Y-100594342D01*
X347808095Y-100594342D02*
X347855714Y-100689580D01*
X347855714Y-100689580D02*
X347903333Y-100737200D01*
X347903333Y-100737200D02*
X347998571Y-100784819D01*
X347998571Y-100784819D02*
X348284285Y-100784819D01*
X348284285Y-100784819D02*
X348379523Y-100737200D01*
X348379523Y-100737200D02*
X348427142Y-100689580D01*
X274964285Y-99784819D02*
X274964285Y-100594342D01*
X274964285Y-100594342D02*
X274916666Y-100689580D01*
X274916666Y-100689580D02*
X274869047Y-100737200D01*
X274869047Y-100737200D02*
X274773809Y-100784819D01*
X274773809Y-100784819D02*
X274583333Y-100784819D01*
X274583333Y-100784819D02*
X274488095Y-100737200D01*
X274488095Y-100737200D02*
X274440476Y-100689580D01*
X274440476Y-100689580D02*
X274392857Y-100594342D01*
X274392857Y-100594342D02*
X274392857Y-99784819D01*
X273488095Y-100118152D02*
X273488095Y-100784819D01*
X273726190Y-99737200D02*
X273964285Y-100451485D01*
X273964285Y-100451485D02*
X273345238Y-100451485D01*
X272773809Y-99784819D02*
X272678571Y-99784819D01*
X272678571Y-99784819D02*
X272583333Y-99832438D01*
X272583333Y-99832438D02*
X272535714Y-99880057D01*
X272535714Y-99880057D02*
X272488095Y-99975295D01*
X272488095Y-99975295D02*
X272440476Y-100165771D01*
X272440476Y-100165771D02*
X272440476Y-100403866D01*
X272440476Y-100403866D02*
X272488095Y-100594342D01*
X272488095Y-100594342D02*
X272535714Y-100689580D01*
X272535714Y-100689580D02*
X272583333Y-100737200D01*
X272583333Y-100737200D02*
X272678571Y-100784819D01*
X272678571Y-100784819D02*
X272773809Y-100784819D01*
X272773809Y-100784819D02*
X272869047Y-100737200D01*
X272869047Y-100737200D02*
X272916666Y-100689580D01*
X272916666Y-100689580D02*
X272964285Y-100594342D01*
X272964285Y-100594342D02*
X273011904Y-100403866D01*
X273011904Y-100403866D02*
X273011904Y-100165771D01*
X273011904Y-100165771D02*
X272964285Y-99975295D01*
X272964285Y-99975295D02*
X272916666Y-99880057D01*
X272916666Y-99880057D02*
X272869047Y-99832438D01*
X272869047Y-99832438D02*
X272773809Y-99784819D01*
X272059523Y-99880057D02*
X272011904Y-99832438D01*
X272011904Y-99832438D02*
X271916666Y-99784819D01*
X271916666Y-99784819D02*
X271678571Y-99784819D01*
X271678571Y-99784819D02*
X271583333Y-99832438D01*
X271583333Y-99832438D02*
X271535714Y-99880057D01*
X271535714Y-99880057D02*
X271488095Y-99975295D01*
X271488095Y-99975295D02*
X271488095Y-100070533D01*
X271488095Y-100070533D02*
X271535714Y-100213390D01*
X271535714Y-100213390D02*
X272107142Y-100784819D01*
X272107142Y-100784819D02*
X271488095Y-100784819D01*
X121451887Y-171590000D02*
G75*
G03*
X121451887Y-171590000I-13561887J0D01*
G01*
D11*
X73540000Y-82550000D02*
G75*
G03*
X73540000Y-82550000I-3810000J0D01*
G01*
X85850000Y-82550000D02*
G75*
G03*
X85850000Y-82550000I-16120000J0D01*
G01*
X71000000Y-86360000D02*
G75*
G03*
X71000000Y-86360000I-1270000J0D01*
G01*
X149860000Y-82550000D02*
G75*
G03*
X149860000Y-82550000I-3810000J0D01*
G01*
X162170000Y-82550000D02*
G75*
G03*
X162170000Y-82550000I-16120000J0D01*
G01*
X147320000Y-86360000D02*
G75*
G03*
X147320000Y-86360000I-1270000J0D01*
G01*
D10*
X324971887Y-171590000D02*
G75*
G03*
X324971887Y-171590000I-13561887J0D01*
G01*
D11*
X353380000Y-82550000D02*
G75*
G03*
X353380000Y-82550000I-3810000J0D01*
G01*
X365690000Y-82550000D02*
G75*
G03*
X365690000Y-82550000I-16120000J0D01*
G01*
X350840000Y-86360000D02*
G75*
G03*
X350840000Y-86360000I-1270000J0D01*
G01*
X277060000Y-82550000D02*
G75*
G03*
X277060000Y-82550000I-3810000J0D01*
G01*
X289370000Y-82550000D02*
G75*
G03*
X289370000Y-82550000I-16120000J0D01*
G01*
X274520000Y-86360000D02*
G75*
G03*
X274520000Y-86360000I-1270000J0D01*
G01*
M02*
