M48
; DRILL file {KiCad (6.0.2-0)} date Saturday, 26 February 2022 at 18:36:37
; FORMAT={-:-/ absolute / inch / decimal}
; #@! TF.CreationDate,2022-02-26T18:36:37+00:00
; #@! TF.GenerationSoftware,Kicad,Pcbnew,(6.0.2-0)
; #@! TF.FileFunction,Plated,1,2,PTH
FMAT,2
INCH
; #@! TA.AperFunction,Plated,PTH,ViaDrill
T1C0.0157
; #@! TA.AperFunction,Plated,PTH,ComponentDrill
T2C0.0197
; #@! TA.AperFunction,Plated,PTH,ComponentDrill
T3C0.0276
; #@! TA.AperFunction,Plated,PTH,ComponentDrill
T4C0.0295
; #@! TA.AperFunction,Plated,PTH,ComponentDrill
T5C0.0315
; #@! TA.AperFunction,Plated,PTH,ComponentDrill
T6C0.0354
; #@! TA.AperFunction,Plated,PTH,ComponentDrill
T7C0.0394
; #@! TA.AperFunction,Plated,PTH,ComponentDrill
T8C0.0433
; #@! TA.AperFunction,Plated,PTH,ComponentDrill
T9C0.0472
; #@! TA.AperFunction,Plated,PTH,ComponentDrill
T10C0.0512
; #@! TA.AperFunction,Plated,PTH,ComponentDrill
T11C0.0630
; #@! TA.AperFunction,Plated,PTH,ComponentDrill
T12C0.0787
; #@! TA.AperFunction,Plated,PTH,ComponentDrill
T13C0.0827
; #@! TA.AperFunction,Plated,PTH,ComponentDrill
T14C0.0984
; #@! TA.AperFunction,Plated,PTH,ComponentDrill
T15C0.1260
%
G90
G05
T1
X6.6Y-5.31
X6.64Y-5.31
X6.68Y-5.31
T2
X6.4067Y-7.5067
X6.4344Y-7.4399
X6.4344Y-7.5735
X6.5012Y-7.4122
X6.5012Y-7.6012
X6.568Y-7.4399
X6.568Y-7.5735
X6.5957Y-7.5067
X9.9122Y-2.2484
X9.9399Y-2.1816
X9.9399Y-2.3152
X10.0067Y-2.1539
X10.0067Y-2.3429
X10.0735Y-2.1816
X10.0735Y-2.3152
X10.1012Y-2.2484
T3
X3.85Y-4.45
X3.85Y-4.65
X3.95Y-4.55
X4.15Y-5.6394
X4.15Y-5.975
X4.25Y-5.5394
X4.25Y-5.7394
X4.25Y-5.875
X4.35Y-5.975
X4.65Y-4.45
X4.65Y-4.65
X4.75Y-4.55
X8.08Y-2.77
X8.18Y-2.87
X8.28Y-2.77
X9.17Y-6.92
X9.27Y-6.82
X9.27Y-7.02
X11.8626Y-4.45
X11.8626Y-4.65
X11.9626Y-4.55
X12.16Y-5.6494
X12.1626Y-5.975
X12.26Y-5.5494
X12.26Y-5.7494
X12.2626Y-5.875
X12.3626Y-5.975
X12.6626Y-4.45
X12.6626Y-4.65
X12.7626Y-4.55
T4
X2.3Y-4.71
X2.35Y-4.76
X2.4Y-4.71
X2.535Y-4.75
X2.585Y-4.7
X2.635Y-4.75
X4.75Y-5.65
X4.75Y-5.825
X4.8Y-5.6
X4.8Y-5.875
X4.85Y-5.65
X4.85Y-5.825
X6.0125Y-4.725
X6.0625Y-4.675
X6.1125Y-4.725
X6.25Y-4.6825
X6.3Y-4.7325
X6.35Y-4.6825
X10.3126Y-4.71
X10.3626Y-4.76
X10.4126Y-4.71
X10.5476Y-4.75
X10.5976Y-4.7
X10.6476Y-4.75
X12.7626Y-5.65
X12.7626Y-5.825
X12.8126Y-5.6
X12.8126Y-5.875
X12.8626Y-5.65
X12.8626Y-5.825
X14.0251Y-4.725
X14.0751Y-4.675
X14.1251Y-4.725
X14.2626Y-4.6825
X14.3126Y-4.7325
X14.3626Y-4.6825
T5
X2.29Y-4.41
X2.29Y-4.55
X2.5Y-5.05
X2.69Y-4.41
X2.69Y-4.55
X2.81Y-4.48
X2.9Y-5.05
X2.94Y-4.11
X3.11Y-4.48
X3.175Y-4.63
X3.175Y-5.03
X3.1886Y-2.6786
X3.31Y-4.63
X3.31Y-5.03
X3.34Y-4.11
X3.4Y-6.65
X3.4Y-7.05
X3.45Y-4.63
X3.45Y-5.03
X3.4714Y-2.9614
X3.59Y-4.63
X3.59Y-5.03
X3.59Y-6.65
X3.59Y-7.05
X3.84Y-4.999
X3.84Y-5.0974
X4.025Y-4.25
X4.425Y-4.25
X4.55Y-5.54
X4.55Y-5.94
X4.8Y-6.04
X4.87Y-6.62
X4.87Y-6.75
X4.89Y-3.77
X5.06Y-4.63
X5.06Y-5.03
X5.2Y-6.04
X5.27Y-6.62
X5.27Y-6.75
X5.27Y-6.95
X5.29Y-3.77
X5.38Y-6.75
X5.51Y-4.225
X5.52Y-4.63
X5.52Y-5.03
X5.5475Y-4.4125
X5.5769Y-6.75
X5.67Y-6.95
X5.8475Y-4.4125
X5.91Y-4.225
X5.97Y-4.905
X5.975Y-5.1
X5.975Y-5.31
X5.98Y-4.46
X6.1886Y-2.6786
X6.37Y-4.905
X6.375Y-5.1
X6.375Y-5.31
X6.38Y-4.46
X6.4714Y-2.9614
X6.86Y-4.0
X6.86Y-4.4
X7.0Y-3.51
X7.0807Y-3.2147
X7.14Y-4.0
X7.14Y-4.4
X7.38Y-4.1
X7.38Y-4.4
X7.62Y-4.0
X7.62Y-4.4
X7.83Y-4.0
X7.83Y-4.4
X8.2Y-3.16
X8.2Y-3.37
X8.52Y-5.44
X8.52Y-5.84
X8.6Y-3.16
X8.6Y-3.37
X8.66Y-4.33
X8.69Y-5.44
X8.69Y-5.84
X8.7584Y-4.33
X8.86Y-5.54
X8.86Y-5.84
X8.91Y-3.16
X9.01Y-5.44
X9.01Y-5.84
X9.17Y-5.44
X9.17Y-5.84
X9.31Y-3.16
X9.32Y-5.44
X9.32Y-5.84
X9.58Y-6.82
X9.58Y-7.22
X10.14Y-5.26
X10.3026Y-4.55
X10.31Y-4.91
X10.5126Y-5.05
X10.54Y-5.26
X10.63Y-4.01
X10.7026Y-4.55
X10.71Y-4.91
X10.8226Y-4.48
X10.9126Y-5.05
X10.99Y-5.3
X11.03Y-4.01
X11.1226Y-4.48
X11.1876Y-4.63
X11.1876Y-5.03
X11.29Y-2.6786
X11.3226Y-4.63
X11.3226Y-5.03
X11.39Y-5.3
X11.42Y-6.65
X11.42Y-7.05
X11.4626Y-4.63
X11.4626Y-5.03
X11.5728Y-2.9614
X11.6Y-4.63
X11.6Y-5.03
X11.61Y-6.65
X11.61Y-7.05
X11.86Y-5.0016
X11.86Y-5.1
X12.5626Y-5.55
X12.5626Y-5.95
X12.8126Y-6.04
X12.8976Y-3.75
X12.9Y-6.6175
X12.9Y-6.76
X13.07Y-4.63
X13.07Y-5.03
X13.2126Y-6.04
X13.2976Y-3.75
X13.3Y-6.6175
X13.3Y-6.76
X13.3Y-6.96
X13.41Y-6.76
X13.5226Y-4.225
X13.5326Y-4.63
X13.5326Y-5.03
X13.5601Y-4.4125
X13.6069Y-6.76
X13.7Y-6.96
X13.8601Y-4.4125
X13.9226Y-4.225
X13.9826Y-4.905
X13.9876Y-5.1
X13.9926Y-4.46
X14.1986Y-2.6786
X14.3826Y-4.905
X14.3876Y-5.1
X14.3926Y-4.46
X14.4814Y-2.9614
T6
X5.025Y-5.625
X5.025Y-5.85
X5.125Y-5.625
X5.125Y-5.85
X13.0376Y-5.625
X13.0376Y-5.85
X13.1376Y-5.625
X13.1376Y-5.85
T7
X8.89Y-3.4131
X8.89Y-3.61
X9.6168Y-5.68
X9.8136Y-5.68
T8
X2.8147Y-4.69
X2.9048Y-4.69
X2.995Y-4.69
X5.6672Y-4.5825
X5.7573Y-4.5825
X5.8475Y-4.5825
X6.94Y-2.62
X6.94Y-2.92
X7.21Y-4.585
X7.23Y-2.62
X7.23Y-2.92
X7.31Y-4.585
X7.41Y-4.585
X7.52Y-2.62
X7.52Y-2.92
X7.81Y-2.62
X7.81Y-2.92
X8.57Y-2.58
X8.57Y-2.88
X8.65Y-6.025
X8.75Y-6.025
X8.77Y-2.58
X8.77Y-2.88
X8.85Y-6.025
X9.08Y-2.59
X9.08Y-2.89
X9.28Y-2.59
X9.28Y-2.89
X10.8273Y-4.69
X10.9174Y-4.69
X11.0076Y-4.69
X13.6798Y-4.5825
X13.7699Y-4.5825
X13.8601Y-4.5825
T9
X2.46Y-2.49
X2.75Y-5.475
X2.75Y-6.075
X3.06Y-2.49
X3.18Y-5.5
X3.18Y-6.3858
X3.6Y-5.57
X3.6Y-6.17
X3.7831Y-3.89
X3.95Y-5.35
X3.98Y-3.89
X4.08Y-3.0
X4.3753Y-3.0
X4.5Y-3.89
X4.55Y-5.35
X4.65Y-2.7
X4.6969Y-3.89
X5.25Y-2.7
X5.28Y-3.98
X5.28Y-4.58
X5.46Y-2.49
X5.525Y-5.57
X5.525Y-6.17
X5.9Y-5.5
X5.9Y-6.3858
X6.06Y-2.49
X7.38Y-7.29
X7.48Y-3.45
X7.7753Y-3.45
X8.1394Y-6.9
X8.2047Y-4.7
X8.26Y-3.7731
X8.26Y-4.0684
X8.5Y-4.7
X8.58Y-7.29
X8.73Y-6.9
X8.81Y-3.88
X8.8185Y-4.98
X9.0154Y-4.98
X9.0847Y-4.36
X9.38Y-4.36
X9.41Y-3.88
X9.56Y-4.96
X9.6Y-3.05
X9.6Y-3.64
X9.6185Y-6.26
X9.7969Y-3.05
X9.7969Y-3.64
X9.8154Y-6.26
X9.8553Y-4.96
X10.45Y-2.49
X10.7626Y-5.475
X10.7626Y-6.075
X11.05Y-2.49
X11.1926Y-5.5
X11.1926Y-6.3858
X11.6126Y-5.57
X11.6126Y-6.17
X11.7957Y-3.89
X11.9626Y-5.35
X11.9926Y-3.89
X12.0926Y-3.0
X12.3879Y-3.0
X12.5126Y-3.89
X12.5626Y-5.35
X12.6626Y-2.7
X12.7094Y-3.89
X13.2626Y-2.7
X13.29Y-3.98
X13.29Y-4.58
X13.5376Y-5.57
X13.5376Y-6.17
X13.9126Y-5.5
X13.9126Y-6.3858
T10
X2.84Y-7.0503
X3.0369Y-7.0503
X3.2557Y-2.26
X3.6494Y-2.26
X4.0431Y-2.26
X4.4369Y-2.26
X4.8306Y-2.26
X5.2243Y-2.26
X5.95Y-6.8303
X6.1469Y-6.8303
X7.0863Y-2.3
X7.2831Y-2.3
X7.5831Y-2.3
X7.78Y-2.3
X8.0831Y-2.3
X8.28Y-2.3
X8.5731Y-2.3
X8.77Y-2.3
X9.0831Y-2.3
X9.28Y-2.3
X9.9031Y-6.9003
X10.1Y-6.9003
X10.8531Y-7.0503
X11.05Y-7.0503
X11.2757Y-2.26
X11.6694Y-2.26
X12.0631Y-2.26
X12.4569Y-2.26
X12.8506Y-2.26
X13.2443Y-2.26
X13.9716Y-6.8303
X14.1684Y-6.8303
T11
X2.35Y-4.11
X2.84Y-6.39
X4.25Y-4.6
X5.52Y-6.4
X5.55Y-3.975
X6.86Y-6.67
X6.86Y-6.9
X6.86Y-7.5
X7.12Y-6.9
X7.12Y-7.5
X7.33Y-6.9
X7.46Y-6.67
X7.93Y-6.9
X10.3626Y-4.1
X10.8526Y-6.39
X12.2626Y-4.6
X13.54Y-6.39
X13.5626Y-3.975
T12
X3.8343Y-6.6212
X3.8343Y-6.8898
X3.9921Y-6.4039
X3.9922Y-7.1072
X4.2476Y-6.3209
X4.5031Y-6.4039
X4.5031Y-7.1072
X4.661Y-6.6212
X4.661Y-6.8898
X11.8469Y-6.6212
X11.8469Y-6.8898
X12.0047Y-6.4039
X12.0048Y-7.1072
X12.2602Y-6.3209
X12.5157Y-6.4039
X12.5157Y-7.1072
X12.6736Y-6.6212
X12.6736Y-6.8898
T13
X9.7Y-2.25
T14
X2.2724Y-3.0541
X2.2724Y-3.4459
X2.5494Y-2.7771
X2.5494Y-3.7229
X2.9411Y-2.7771
X2.9411Y-3.7229
X3.2181Y-3.0541
X3.2181Y-3.4459
X5.2771Y-3.0541
X5.2771Y-3.4459
X5.5541Y-2.7771
X5.5541Y-3.7229
X5.9459Y-2.7771
X5.9459Y-3.7229
X6.2229Y-3.0541
X6.2229Y-3.4459
X10.285Y-3.0541
X10.285Y-3.4459
X10.562Y-2.7771
X10.562Y-3.7229
X10.9537Y-2.7771
X10.9537Y-3.7229
X11.2307Y-3.0541
X11.2307Y-3.4459
X13.2897Y-3.0541
X13.2897Y-3.4459
X13.5667Y-2.7771
X13.5667Y-3.7229
X13.9585Y-2.7771
X13.9585Y-3.7229
X14.2355Y-3.0541
X14.2355Y-3.4459
T15
X6.5012Y-7.5067
X10.0067Y-2.2484
T0
M30
