G04 #@! TF.GenerationSoftware,KiCad,Pcbnew,(6.0.2-0)*
G04 #@! TF.CreationDate,2022-02-26T18:36:33+00:00*
G04 #@! TF.ProjectId,BabyHuey,42616279-4875-4657-992e-6b696361645f,1*
G04 #@! TF.SameCoordinates,Original*
G04 #@! TF.FileFunction,Legend,Bot*
G04 #@! TF.FilePolarity,Positive*
%FSLAX46Y46*%
G04 Gerber Fmt 4.6, Leading zero omitted, Abs format (unit mm)*
G04 Created by KiCad (PCBNEW (6.0.2-0)) date 2022-02-26 18:36:33*
%MOMM*%
%LPD*%
G01*
G04 APERTURE LIST*
%ADD10C,0.150000*%
%ADD11C,0.120000*%
G04 APERTURE END LIST*
D10*
X174966380Y-83105904D02*
X174966380Y-83677333D01*
X175966380Y-83391619D02*
X174966380Y-83391619D01*
X175966380Y-84010666D02*
X174966380Y-84010666D01*
X175442571Y-84010666D02*
X175442571Y-84582095D01*
X175966380Y-84582095D02*
X174966380Y-84582095D01*
X175061619Y-85010666D02*
X175014000Y-85058285D01*
X174966380Y-85153523D01*
X174966380Y-85391619D01*
X175014000Y-85486857D01*
X175061619Y-85534476D01*
X175156857Y-85582095D01*
X175252095Y-85582095D01*
X175394952Y-85534476D01*
X175966380Y-84963047D01*
X175966380Y-85582095D01*
X174966380Y-86201142D02*
X174966380Y-86296380D01*
X175014000Y-86391619D01*
X175061619Y-86439238D01*
X175156857Y-86486857D01*
X175347333Y-86534476D01*
X175585428Y-86534476D01*
X175775904Y-86486857D01*
X175871142Y-86439238D01*
X175918761Y-86391619D01*
X175966380Y-86296380D01*
X175966380Y-86201142D01*
X175918761Y-86105904D01*
X175871142Y-86058285D01*
X175775904Y-86010666D01*
X175585428Y-85963047D01*
X175347333Y-85963047D01*
X175156857Y-86010666D01*
X175061619Y-86058285D01*
X175014000Y-86105904D01*
X174966380Y-86201142D01*
X175966380Y-87486857D02*
X175966380Y-86915428D01*
X175966380Y-87201142D02*
X174966380Y-87201142D01*
X175109238Y-87105904D01*
X175204476Y-87010666D01*
X175252095Y-86915428D01*
X108334285Y-155802380D02*
X108334285Y-156611904D01*
X108286666Y-156707142D01*
X108239047Y-156754761D01*
X108143809Y-156802380D01*
X107953333Y-156802380D01*
X107858095Y-156754761D01*
X107810476Y-156707142D01*
X107762857Y-156611904D01*
X107762857Y-155802380D01*
X107381904Y-155802380D02*
X106762857Y-155802380D01*
X107096190Y-156183333D01*
X106953333Y-156183333D01*
X106858095Y-156230952D01*
X106810476Y-156278571D01*
X106762857Y-156373809D01*
X106762857Y-156611904D01*
X106810476Y-156707142D01*
X106858095Y-156754761D01*
X106953333Y-156802380D01*
X107239047Y-156802380D01*
X107334285Y-156754761D01*
X107381904Y-156707142D01*
X106143809Y-155802380D02*
X106048571Y-155802380D01*
X105953333Y-155850000D01*
X105905714Y-155897619D01*
X105858095Y-155992857D01*
X105810476Y-156183333D01*
X105810476Y-156421428D01*
X105858095Y-156611904D01*
X105905714Y-156707142D01*
X105953333Y-156754761D01*
X106048571Y-156802380D01*
X106143809Y-156802380D01*
X106239047Y-156754761D01*
X106286666Y-156707142D01*
X106334285Y-156611904D01*
X106381904Y-156421428D01*
X106381904Y-156183333D01*
X106334285Y-155992857D01*
X106286666Y-155897619D01*
X106239047Y-155850000D01*
X106143809Y-155802380D01*
X104858095Y-156802380D02*
X105429523Y-156802380D01*
X105143809Y-156802380D02*
X105143809Y-155802380D01*
X105239047Y-155945238D01*
X105334285Y-156040476D01*
X105429523Y-156088095D01*
X71444285Y-99782380D02*
X71444285Y-100591904D01*
X71396666Y-100687142D01*
X71349047Y-100734761D01*
X71253809Y-100782380D01*
X71063333Y-100782380D01*
X70968095Y-100734761D01*
X70920476Y-100687142D01*
X70872857Y-100591904D01*
X70872857Y-99782380D01*
X70491904Y-99782380D02*
X69872857Y-99782380D01*
X70206190Y-100163333D01*
X70063333Y-100163333D01*
X69968095Y-100210952D01*
X69920476Y-100258571D01*
X69872857Y-100353809D01*
X69872857Y-100591904D01*
X69920476Y-100687142D01*
X69968095Y-100734761D01*
X70063333Y-100782380D01*
X70349047Y-100782380D01*
X70444285Y-100734761D01*
X70491904Y-100687142D01*
X69253809Y-99782380D02*
X69158571Y-99782380D01*
X69063333Y-99830000D01*
X69015714Y-99877619D01*
X68968095Y-99972857D01*
X68920476Y-100163333D01*
X68920476Y-100401428D01*
X68968095Y-100591904D01*
X69015714Y-100687142D01*
X69063333Y-100734761D01*
X69158571Y-100782380D01*
X69253809Y-100782380D01*
X69349047Y-100734761D01*
X69396666Y-100687142D01*
X69444285Y-100591904D01*
X69491904Y-100401428D01*
X69491904Y-100163333D01*
X69444285Y-99972857D01*
X69396666Y-99877619D01*
X69349047Y-99830000D01*
X69253809Y-99782380D01*
X68539523Y-99877619D02*
X68491904Y-99830000D01*
X68396666Y-99782380D01*
X68158571Y-99782380D01*
X68063333Y-99830000D01*
X68015714Y-99877619D01*
X67968095Y-99972857D01*
X67968095Y-100068095D01*
X68015714Y-100210952D01*
X68587142Y-100782380D01*
X67968095Y-100782380D01*
X147764285Y-99782380D02*
X147764285Y-100591904D01*
X147716666Y-100687142D01*
X147669047Y-100734761D01*
X147573809Y-100782380D01*
X147383333Y-100782380D01*
X147288095Y-100734761D01*
X147240476Y-100687142D01*
X147192857Y-100591904D01*
X147192857Y-99782380D01*
X146811904Y-99782380D02*
X146192857Y-99782380D01*
X146526190Y-100163333D01*
X146383333Y-100163333D01*
X146288095Y-100210952D01*
X146240476Y-100258571D01*
X146192857Y-100353809D01*
X146192857Y-100591904D01*
X146240476Y-100687142D01*
X146288095Y-100734761D01*
X146383333Y-100782380D01*
X146669047Y-100782380D01*
X146764285Y-100734761D01*
X146811904Y-100687142D01*
X145573809Y-99782380D02*
X145478571Y-99782380D01*
X145383333Y-99830000D01*
X145335714Y-99877619D01*
X145288095Y-99972857D01*
X145240476Y-100163333D01*
X145240476Y-100401428D01*
X145288095Y-100591904D01*
X145335714Y-100687142D01*
X145383333Y-100734761D01*
X145478571Y-100782380D01*
X145573809Y-100782380D01*
X145669047Y-100734761D01*
X145716666Y-100687142D01*
X145764285Y-100591904D01*
X145811904Y-100401428D01*
X145811904Y-100163333D01*
X145764285Y-99972857D01*
X145716666Y-99877619D01*
X145669047Y-99830000D01*
X145573809Y-99782380D01*
X144907142Y-99782380D02*
X144288095Y-99782380D01*
X144621428Y-100163333D01*
X144478571Y-100163333D01*
X144383333Y-100210952D01*
X144335714Y-100258571D01*
X144288095Y-100353809D01*
X144288095Y-100591904D01*
X144335714Y-100687142D01*
X144383333Y-100734761D01*
X144478571Y-100782380D01*
X144764285Y-100782380D01*
X144859523Y-100734761D01*
X144907142Y-100687142D01*
X311854285Y-155802380D02*
X311854285Y-156611904D01*
X311806666Y-156707142D01*
X311759047Y-156754761D01*
X311663809Y-156802380D01*
X311473333Y-156802380D01*
X311378095Y-156754761D01*
X311330476Y-156707142D01*
X311282857Y-156611904D01*
X311282857Y-155802380D01*
X310378095Y-156135714D02*
X310378095Y-156802380D01*
X310616190Y-155754761D02*
X310854285Y-156469047D01*
X310235238Y-156469047D01*
X309663809Y-155802380D02*
X309568571Y-155802380D01*
X309473333Y-155850000D01*
X309425714Y-155897619D01*
X309378095Y-155992857D01*
X309330476Y-156183333D01*
X309330476Y-156421428D01*
X309378095Y-156611904D01*
X309425714Y-156707142D01*
X309473333Y-156754761D01*
X309568571Y-156802380D01*
X309663809Y-156802380D01*
X309759047Y-156754761D01*
X309806666Y-156707142D01*
X309854285Y-156611904D01*
X309901904Y-156421428D01*
X309901904Y-156183333D01*
X309854285Y-155992857D01*
X309806666Y-155897619D01*
X309759047Y-155850000D01*
X309663809Y-155802380D01*
X308378095Y-156802380D02*
X308949523Y-156802380D01*
X308663809Y-156802380D02*
X308663809Y-155802380D01*
X308759047Y-155945238D01*
X308854285Y-156040476D01*
X308949523Y-156088095D01*
X351284285Y-99782380D02*
X351284285Y-100591904D01*
X351236666Y-100687142D01*
X351189047Y-100734761D01*
X351093809Y-100782380D01*
X350903333Y-100782380D01*
X350808095Y-100734761D01*
X350760476Y-100687142D01*
X350712857Y-100591904D01*
X350712857Y-99782380D01*
X349808095Y-100115714D02*
X349808095Y-100782380D01*
X350046190Y-99734761D02*
X350284285Y-100449047D01*
X349665238Y-100449047D01*
X349093809Y-99782380D02*
X348998571Y-99782380D01*
X348903333Y-99830000D01*
X348855714Y-99877619D01*
X348808095Y-99972857D01*
X348760476Y-100163333D01*
X348760476Y-100401428D01*
X348808095Y-100591904D01*
X348855714Y-100687142D01*
X348903333Y-100734761D01*
X348998571Y-100782380D01*
X349093809Y-100782380D01*
X349189047Y-100734761D01*
X349236666Y-100687142D01*
X349284285Y-100591904D01*
X349331904Y-100401428D01*
X349331904Y-100163333D01*
X349284285Y-99972857D01*
X349236666Y-99877619D01*
X349189047Y-99830000D01*
X349093809Y-99782380D01*
X348427142Y-99782380D02*
X347808095Y-99782380D01*
X348141428Y-100163333D01*
X347998571Y-100163333D01*
X347903333Y-100210952D01*
X347855714Y-100258571D01*
X347808095Y-100353809D01*
X347808095Y-100591904D01*
X347855714Y-100687142D01*
X347903333Y-100734761D01*
X347998571Y-100782380D01*
X348284285Y-100782380D01*
X348379523Y-100734761D01*
X348427142Y-100687142D01*
X274964285Y-99782380D02*
X274964285Y-100591904D01*
X274916666Y-100687142D01*
X274869047Y-100734761D01*
X274773809Y-100782380D01*
X274583333Y-100782380D01*
X274488095Y-100734761D01*
X274440476Y-100687142D01*
X274392857Y-100591904D01*
X274392857Y-99782380D01*
X273488095Y-100115714D02*
X273488095Y-100782380D01*
X273726190Y-99734761D02*
X273964285Y-100449047D01*
X273345238Y-100449047D01*
X272773809Y-99782380D02*
X272678571Y-99782380D01*
X272583333Y-99830000D01*
X272535714Y-99877619D01*
X272488095Y-99972857D01*
X272440476Y-100163333D01*
X272440476Y-100401428D01*
X272488095Y-100591904D01*
X272535714Y-100687142D01*
X272583333Y-100734761D01*
X272678571Y-100782380D01*
X272773809Y-100782380D01*
X272869047Y-100734761D01*
X272916666Y-100687142D01*
X272964285Y-100591904D01*
X273011904Y-100401428D01*
X273011904Y-100163333D01*
X272964285Y-99972857D01*
X272916666Y-99877619D01*
X272869047Y-99830000D01*
X272773809Y-99782380D01*
X272059523Y-99877619D02*
X272011904Y-99830000D01*
X271916666Y-99782380D01*
X271678571Y-99782380D01*
X271583333Y-99830000D01*
X271535714Y-99877619D01*
X271488095Y-99972857D01*
X271488095Y-100068095D01*
X271535714Y-100210952D01*
X272107142Y-100782380D01*
X271488095Y-100782380D01*
D11*
X176416000Y-79375000D02*
X176416000Y-91440000D01*
D10*
X176416000Y-79375000D02*
X181216000Y-79375000D01*
X176416000Y-91440000D02*
X181216000Y-91440000D01*
D11*
X181216000Y-91440000D02*
X181216000Y-79375000D01*
D10*
X121451887Y-171590000D02*
G75*
G03*
X121451887Y-171590000I-13561887J0D01*
G01*
D11*
X85850000Y-82550000D02*
G75*
G03*
X85850000Y-82550000I-16120000J0D01*
G01*
X73540000Y-82550000D02*
G75*
G03*
X73540000Y-82550000I-3810000J0D01*
G01*
X71000000Y-86360000D02*
G75*
G03*
X71000000Y-86360000I-1270000J0D01*
G01*
X149860000Y-82550000D02*
G75*
G03*
X149860000Y-82550000I-3810000J0D01*
G01*
X147320000Y-86360000D02*
G75*
G03*
X147320000Y-86360000I-1270000J0D01*
G01*
X162170000Y-82550000D02*
G75*
G03*
X162170000Y-82550000I-16120000J0D01*
G01*
D10*
X324971887Y-171590000D02*
G75*
G03*
X324971887Y-171590000I-13561887J0D01*
G01*
D11*
X365690000Y-82550000D02*
G75*
G03*
X365690000Y-82550000I-16120000J0D01*
G01*
X350840000Y-86360000D02*
G75*
G03*
X350840000Y-86360000I-1270000J0D01*
G01*
X353380000Y-82550000D02*
G75*
G03*
X353380000Y-82550000I-3810000J0D01*
G01*
X274520000Y-86360000D02*
G75*
G03*
X274520000Y-86360000I-1270000J0D01*
G01*
X277060000Y-82550000D02*
G75*
G03*
X277060000Y-82550000I-3810000J0D01*
G01*
X289370000Y-82550000D02*
G75*
G03*
X289370000Y-82550000I-16120000J0D01*
G01*
M02*
